<?xml version="1.0" encoding="UTF-8"?>
<svg xmlns="http://www.w3.org/2000/svg" xmlns:xlink="http://www.w3.org/1999/xlink" width="15px" height="12px" viewBox="0 0 15 12" version="1.1">
<g id="surface1">
<path style=" stroke:none;fill-rule:nonzero;fill:rgb(23.529412%,71.372551%,77.64706%);fill-opacity:1;" d="M 13.25 3.953125 C 13.304688 3.976562 13.363281 4.003906 13.421875 4.027344 C 13.4375 4.035156 13.4375 4.035156 13.449219 4.039062 C 13.472656 4.050781 13.496094 4.058594 13.519531 4.070312 C 13.519531 4.078125 13.519531 4.082031 13.519531 4.089844 C 13.527344 4.09375 13.535156 4.09375 13.542969 4.097656 C 13.585938 4.113281 13.625 4.132812 13.664062 4.15625 C 13.671875 4.160156 13.679688 4.164062 13.6875 4.171875 C 13.730469 4.195312 13.769531 4.222656 13.808594 4.261719 C 13.839844 4.289062 13.875 4.3125 13.910156 4.339844 C 13.960938 4.378906 14.007812 4.414062 14.046875 4.464844 C 14.066406 4.484375 14.085938 4.503906 14.109375 4.519531 C 14.109375 4.527344 14.109375 4.53125 14.109375 4.539062 C 14.117188 4.539062 14.125 4.539062 14.128906 4.539062 C 14.144531 4.554688 14.144531 4.554688 14.160156 4.578125 C 14.191406 4.617188 14.222656 4.660156 14.257812 4.703125 C 14.296875 4.753906 14.335938 4.800781 14.371094 4.855469 C 14.375 4.859375 14.378906 4.867188 14.382812 4.875 C 14.390625 4.882812 14.394531 4.890625 14.398438 4.898438 C 14.40625 4.910156 14.414062 4.917969 14.417969 4.929688 C 14.585938 5.183594 14.722656 5.550781 14.71875 5.859375 C 14.617188 5.859375 14.515625 5.859375 14.414062 5.859375 C 14.402344 5.859375 14.402344 5.859375 14.390625 5.859375 C 14.152344 5.859375 13.917969 5.859375 13.679688 5.851562 C 13.667969 5.808594 13.65625 5.769531 13.652344 5.730469 C 13.640625 5.675781 13.625 5.625 13.605469 5.570312 C 13.597656 5.542969 13.589844 5.519531 13.589844 5.488281 C 13.582031 5.488281 13.578125 5.484375 13.570312 5.480469 C 13.558594 5.457031 13.546875 5.429688 13.535156 5.40625 C 13.453125 5.242188 13.34375 5.097656 13.199219 4.980469 C 13.1875 4.96875 13.1875 4.96875 13.171875 4.957031 C 13.085938 4.886719 12.984375 4.835938 12.878906 4.800781 C 12.878906 4.792969 12.878906 4.785156 12.878906 4.78125 C 12.851562 4.773438 12.820312 4.765625 12.789062 4.761719 C 12.777344 4.757812 12.765625 4.753906 12.753906 4.753906 C 12.742188 4.75 12.730469 4.746094 12.71875 4.746094 C 12.707031 4.742188 12.695312 4.738281 12.683594 4.738281 C 12.382812 4.679688 12.074219 4.730469 11.808594 4.890625 C 11.804688 4.894531 11.796875 4.902344 11.789062 4.90625 C 11.769531 4.921875 11.769531 4.921875 11.75 4.921875 C 11.75 4.925781 11.75 4.933594 11.75 4.941406 C 11.734375 4.953125 11.714844 4.964844 11.699219 4.976562 C 11.578125 5.0625 11.484375 5.164062 11.410156 5.292969 C 11.398438 5.308594 11.386719 5.328125 11.375 5.347656 C 11.300781 5.460938 11.261719 5.582031 11.226562 5.714844 C 11.21875 5.738281 11.21875 5.738281 11.210938 5.769531 C 11.148438 5.960938 11.171875 6.195312 11.199219 6.390625 C 11.203125 6.398438 11.203125 6.410156 11.203125 6.417969 C 11.222656 6.542969 11.265625 6.660156 11.320312 6.773438 C 11.328125 6.800781 11.328125 6.800781 11.328125 6.820312 C 11.335938 6.824219 11.34375 6.828125 11.351562 6.828125 C 11.359375 6.84375 11.371094 6.859375 11.378906 6.875 C 11.496094 7.0625 11.628906 7.230469 11.828125 7.328125 C 11.828125 7.335938 11.828125 7.34375 11.828125 7.351562 C 11.835938 7.351562 11.84375 7.355469 11.851562 7.359375 C 11.871094 7.367188 11.890625 7.375 11.90625 7.382812 C 11.980469 7.414062 12.054688 7.441406 12.128906 7.464844 C 12.136719 7.464844 12.148438 7.46875 12.15625 7.472656 C 12.351562 7.523438 12.558594 7.511719 12.75 7.460938 C 12.757812 7.457031 12.761719 7.457031 12.769531 7.453125 C 12.929688 7.410156 13.082031 7.328125 13.210938 7.21875 C 13.222656 7.210938 13.222656 7.210938 13.238281 7.199219 C 13.359375 7.089844 13.464844 6.949219 13.53125 6.800781 C 13.535156 6.800781 13.542969 6.800781 13.550781 6.800781 C 13.550781 6.792969 13.550781 6.792969 13.554688 6.785156 C 13.570312 6.742188 13.582031 6.703125 13.59375 6.664062 C 13.597656 6.652344 13.597656 6.652344 13.601562 6.640625 C 13.609375 6.625 13.613281 6.609375 13.621094 6.59375 C 13.621094 6.585938 13.625 6.578125 13.625 6.570312 C 13.628906 6.5625 13.632812 6.554688 13.632812 6.550781 C 13.640625 6.53125 13.644531 6.511719 13.648438 6.488281 C 13.75 6.488281 13.855469 6.488281 13.957031 6.488281 C 13.964844 6.488281 13.96875 6.488281 13.976562 6.488281 C 14.21875 6.488281 14.460938 6.492188 14.699219 6.5 C 14.683594 6.601562 14.65625 6.699219 14.628906 6.800781 C 14.628906 6.808594 14.625 6.8125 14.625 6.820312 C 14.597656 6.917969 14.554688 7.003906 14.515625 7.09375 C 14.511719 7.101562 14.511719 7.101562 14.507812 7.113281 C 14.472656 7.1875 14.4375 7.253906 14.390625 7.320312 C 14.378906 7.335938 14.371094 7.347656 14.363281 7.363281 C 14.351562 7.378906 14.34375 7.394531 14.332031 7.40625 C 14.328125 7.414062 14.324219 7.421875 14.320312 7.429688 C 14.238281 7.550781 14.136719 7.65625 14.035156 7.761719 C 14.027344 7.765625 14.023438 7.769531 14.015625 7.777344 C 13.925781 7.867188 13.832031 7.949219 13.71875 8.019531 C 13.710938 8.027344 13.710938 8.027344 13.699219 8.03125 C 13.65625 8.058594 13.613281 8.085938 13.570312 8.109375 C 13.5625 8.113281 13.558594 8.117188 13.550781 8.121094 C 13.113281 8.371094 12.605469 8.457031 12.109375 8.386719 C 12.101562 8.386719 12.09375 8.382812 12.085938 8.382812 C 11.945312 8.363281 11.808594 8.328125 11.671875 8.28125 C 11.664062 8.277344 11.660156 8.277344 11.652344 8.273438 C 11.488281 8.214844 11.332031 8.140625 11.191406 8.039062 C 11.179688 8.035156 11.171875 8.027344 11.164062 8.023438 C 11.136719 8.003906 11.113281 7.988281 11.085938 7.96875 C 11.074219 7.960938 11.066406 7.957031 11.058594 7.949219 C 11.042969 7.941406 11.042969 7.941406 11.03125 7.929688 C 11.023438 7.925781 11.015625 7.921875 11.007812 7.914062 C 10.988281 7.898438 10.988281 7.898438 10.980469 7.871094 C 10.960938 7.859375 10.960938 7.859375 10.941406 7.851562 C 10.835938 7.773438 10.75 7.679688 10.671875 7.578125 C 10.664062 7.570312 10.65625 7.5625 10.648438 7.554688 C 10.632812 7.535156 10.617188 7.511719 10.601562 7.488281 C 10.59375 7.480469 10.585938 7.472656 10.578125 7.464844 C 10.242188 7.03125 10.101562 6.472656 10.140625 5.929688 C 10.140625 5.917969 10.140625 5.90625 10.140625 5.894531 C 10.160156 5.671875 10.214844 5.460938 10.289062 5.25 C 10.296875 5.25 10.304688 5.25 10.308594 5.25 C 10.3125 5.238281 10.316406 5.226562 10.320312 5.210938 C 10.367188 5.082031 10.425781 4.972656 10.5 4.859375 C 10.503906 4.855469 10.507812 4.847656 10.511719 4.84375 C 10.550781 4.777344 10.59375 4.71875 10.648438 4.664062 C 10.671875 4.640625 10.691406 4.613281 10.710938 4.585938 C 10.816406 4.460938 10.9375 4.355469 11.070312 4.261719 C 11.078125 4.253906 11.085938 4.25 11.09375 4.242188 C 11.417969 4.011719 11.785156 3.855469 12.183594 3.820312 C 12.203125 3.820312 12.21875 3.820312 12.234375 3.816406 C 12.554688 3.785156 12.953125 3.808594 13.25 3.953125 Z M 13.25 3.953125 "/>
<path style=" stroke:none;fill-rule:nonzero;fill:rgb(23.529412%,71.372551%,77.64706%);fill-opacity:1;" d="M 8.28125 3.898438 C 8.289062 3.902344 8.296875 3.90625 8.308594 3.910156 C 8.445312 3.972656 8.574219 4.039062 8.699219 4.121094 C 8.710938 4.128906 8.722656 4.136719 8.734375 4.144531 C 8.785156 4.175781 8.828125 4.207031 8.871094 4.25 C 8.898438 4.273438 8.925781 4.296875 8.957031 4.320312 C 9 4.355469 9 4.355469 9.011719 4.390625 C 9.023438 4.398438 9.035156 4.402344 9.050781 4.410156 C 9.066406 4.421875 9.078125 4.4375 9.09375 4.449219 C 9.101562 4.460938 9.101562 4.460938 9.113281 4.472656 C 9.128906 4.488281 9.128906 4.488281 9.128906 4.511719 C 9.136719 4.511719 9.140625 4.515625 9.148438 4.515625 C 9.175781 4.535156 9.1875 4.550781 9.207031 4.578125 C 9.214844 4.589844 9.222656 4.597656 9.230469 4.609375 C 9.234375 4.621094 9.242188 4.628906 9.25 4.640625 C 9.257812 4.648438 9.261719 4.65625 9.269531 4.664062 C 9.40625 4.84375 9.53125 5.0625 9.59375 5.28125 C 9.597656 5.289062 9.601562 5.296875 9.601562 5.304688 C 9.605469 5.3125 9.609375 5.320312 9.609375 5.328125 C 9.613281 5.339844 9.617188 5.351562 9.621094 5.363281 C 9.632812 5.410156 9.644531 5.457031 9.65625 5.503906 C 9.65625 5.515625 9.65625 5.515625 9.660156 5.53125 C 9.679688 5.617188 9.691406 5.703125 9.699219 5.789062 C 9.351562 5.792969 9.007812 5.789062 8.660156 5.78125 C 8.65625 5.769531 8.65625 5.757812 8.652344 5.742188 C 8.625 5.625 8.625 5.625 8.59375 5.507812 C 8.589844 5.496094 8.589844 5.496094 8.585938 5.488281 C 8.53125 5.332031 8.445312 5.1875 8.339844 5.058594 C 8.335938 5.054688 8.332031 5.046875 8.324219 5.042969 C 8.28125 4.984375 8.226562 4.945312 8.171875 4.898438 C 8.160156 4.890625 8.160156 4.890625 8.148438 4.882812 C 8.085938 4.828125 8.015625 4.792969 7.941406 4.761719 C 7.941406 4.753906 7.941406 4.746094 7.941406 4.738281 C 7.574219 4.625 7.234375 4.59375 6.878906 4.769531 C 6.847656 4.785156 6.820312 4.800781 6.789062 4.820312 C 6.785156 4.824219 6.777344 4.828125 6.773438 4.832031 C 6.539062 4.980469 6.328125 5.230469 6.253906 5.503906 C 6.253906 5.507812 6.25 5.515625 6.25 5.519531 C 6.242188 5.519531 6.238281 5.519531 6.230469 5.519531 C 6.230469 5.527344 6.226562 5.53125 6.226562 5.535156 C 6.226562 5.546875 6.222656 5.554688 6.222656 5.5625 C 6.21875 5.570312 6.21875 5.578125 6.214844 5.589844 C 6.210938 5.609375 6.207031 5.628906 6.203125 5.648438 C 6.105469 6.054688 6.164062 6.46875 6.371094 6.828125 C 6.5 7.035156 6.667969 7.199219 6.890625 7.300781 C 6.890625 7.304688 6.890625 7.3125 6.890625 7.320312 C 6.96875 7.347656 7.046875 7.371094 7.128906 7.394531 C 7.148438 7.398438 7.164062 7.40625 7.183594 7.410156 C 7.460938 7.480469 7.773438 7.410156 8.019531 7.269531 C 8.140625 7.203125 8.242188 7.113281 8.328125 7.011719 C 8.339844 7 8.347656 6.992188 8.355469 6.984375 C 8.4375 6.882812 8.496094 6.78125 8.546875 6.660156 C 8.558594 6.636719 8.566406 6.613281 8.582031 6.589844 C 8.601562 6.554688 8.609375 6.515625 8.621094 6.476562 C 8.625 6.464844 8.628906 6.453125 8.632812 6.4375 C 8.632812 6.429688 8.636719 6.421875 8.640625 6.410156 C 8.746094 6.410156 8.851562 6.414062 8.957031 6.414062 C 9.007812 6.414062 9.058594 6.414062 9.105469 6.414062 C 9.152344 6.414062 9.203125 6.414062 9.25 6.417969 C 9.265625 6.417969 9.285156 6.417969 9.304688 6.417969 C 9.429688 6.417969 9.554688 6.421875 9.679688 6.429688 C 9.671875 6.46875 9.664062 6.507812 9.65625 6.546875 C 9.65625 6.566406 9.65625 6.566406 9.652344 6.582031 C 9.636719 6.652344 9.617188 6.722656 9.589844 6.789062 C 9.585938 6.808594 9.578125 6.824219 9.570312 6.839844 C 9.53125 6.953125 9.480469 7.054688 9.421875 7.160156 C 9.40625 7.1875 9.390625 7.214844 9.378906 7.242188 C 9.367188 7.265625 9.355469 7.289062 9.339844 7.308594 C 9.332031 7.308594 9.328125 7.308594 9.320312 7.308594 C 9.316406 7.316406 9.316406 7.320312 9.3125 7.324219 C 9.296875 7.359375 9.273438 7.386719 9.253906 7.417969 C 9.25 7.421875 9.246094 7.429688 9.242188 7.433594 C 9.207031 7.480469 9.171875 7.523438 9.128906 7.566406 C 9.113281 7.589844 9.09375 7.609375 9.078125 7.628906 C 9.007812 7.707031 8.925781 7.773438 8.847656 7.839844 C 8.828125 7.851562 8.8125 7.867188 8.796875 7.878906 C 8.726562 7.9375 8.648438 7.984375 8.570312 8.03125 C 8.5625 8.035156 8.554688 8.039062 8.546875 8.042969 C 8.324219 8.167969 8.085938 8.25 7.835938 8.300781 C 7.832031 8.304688 7.824219 8.304688 7.816406 8.308594 C 7.675781 8.332031 7.539062 8.34375 7.398438 8.339844 C 7.390625 8.335938 7.386719 8.335938 7.378906 8.335938 C 7.082031 8.328125 6.816406 8.265625 6.539062 8.171875 C 6.539062 8.164062 6.539062 8.15625 6.539062 8.148438 C 6.535156 8.148438 6.53125 8.148438 6.523438 8.144531 C 6.464844 8.125 6.40625 8.101562 6.347656 8.074219 C 6.335938 8.066406 6.335938 8.066406 6.324219 8.058594 C 6.300781 8.050781 6.28125 8.039062 6.261719 8.03125 C 6.261719 8.023438 6.261719 8.015625 6.261719 8.011719 C 6.25 8.007812 6.25 8.007812 6.238281 8 C 6.191406 7.980469 6.152344 7.953125 6.109375 7.925781 C 6.101562 7.921875 6.09375 7.914062 6.082031 7.910156 C 6.035156 7.878906 5.996094 7.851562 5.960938 7.808594 C 5.9375 7.789062 5.914062 7.769531 5.890625 7.75 C 5.847656 7.714844 5.804688 7.675781 5.765625 7.628906 C 5.746094 7.605469 5.722656 7.585938 5.699219 7.5625 C 5.316406 7.191406 5.125 6.597656 5.117188 6.074219 C 5.117188 5.828125 5.125 5.546875 5.226562 5.320312 C 5.238281 5.292969 5.246094 5.269531 5.253906 5.246094 C 5.292969 5.132812 5.339844 5.03125 5.398438 4.929688 C 5.414062 4.90625 5.425781 4.878906 5.4375 4.855469 C 5.476562 4.785156 5.527344 4.722656 5.574219 4.660156 C 5.589844 4.640625 5.601562 4.621094 5.617188 4.601562 C 5.632812 4.578125 5.648438 4.558594 5.671875 4.539062 C 5.679688 4.527344 5.691406 4.515625 5.699219 4.503906 C 5.820312 4.367188 5.957031 4.257812 6.101562 4.148438 C 6.109375 4.144531 6.117188 4.136719 6.128906 4.128906 C 6.4375 3.902344 6.824219 3.785156 7.199219 3.738281 C 7.207031 3.738281 7.214844 3.738281 7.222656 3.738281 C 7.570312 3.695312 7.957031 3.761719 8.28125 3.898438 Z M 8.28125 3.898438 "/>
<path style=" stroke:none;fill-rule:nonzero;fill:rgb(23.529412%,71.372551%,77.64706%);fill-opacity:1;" d="M 2.609375 3.640625 C 2.625 3.640625 2.644531 3.644531 2.660156 3.644531 C 2.773438 3.652344 2.886719 3.660156 2.996094 3.679688 C 3.003906 3.679688 3.015625 3.683594 3.023438 3.683594 C 3.070312 3.691406 3.113281 3.703125 3.15625 3.722656 C 3.210938 3.742188 3.265625 3.757812 3.320312 3.777344 C 3.332031 3.78125 3.34375 3.785156 3.359375 3.789062 C 3.386719 3.800781 3.417969 3.808594 3.449219 3.820312 C 3.449219 3.828125 3.449219 3.832031 3.449219 3.839844 C 3.457031 3.84375 3.457031 3.84375 3.464844 3.84375 C 3.527344 3.863281 3.582031 3.890625 3.636719 3.921875 C 3.644531 3.925781 3.652344 3.929688 3.660156 3.9375 C 3.679688 3.945312 3.699219 3.957031 3.71875 3.96875 C 3.71875 3.976562 3.71875 3.984375 3.71875 3.988281 C 3.726562 3.992188 3.734375 3.996094 3.742188 3.996094 C 3.777344 4.015625 3.808594 4.039062 3.839844 4.0625 C 3.847656 4.066406 3.851562 4.074219 3.859375 4.078125 C 3.894531 4.105469 3.925781 4.136719 3.960938 4.171875 C 3.96875 4.179688 3.980469 4.191406 3.992188 4.199219 C 4.058594 4.265625 4.117188 4.332031 4.171875 4.410156 C 4.179688 4.421875 4.179688 4.421875 4.1875 4.433594 C 4.363281 4.664062 4.453125 4.953125 4.496094 5.230469 C 4.5 5.238281 4.5 5.246094 4.5 5.253906 C 4.523438 5.402344 4.519531 5.550781 4.519531 5.699219 C 4.519531 5.71875 4.519531 5.738281 4.519531 5.757812 C 4.515625 5.8125 4.515625 5.867188 4.515625 5.917969 C 4.515625 5.972656 4.511719 6.03125 4.511719 6.085938 C 4.511719 6.179688 4.511719 6.273438 4.507812 6.371094 C 4.507812 6.5 4.503906 6.632812 4.503906 6.761719 C 4.5 6.976562 4.496094 7.191406 4.492188 7.402344 C 4.492188 7.503906 4.488281 7.605469 4.488281 7.707031 C 4.488281 7.769531 4.484375 7.835938 4.484375 7.898438 C 4.484375 7.921875 4.484375 7.949219 4.484375 7.972656 C 4.484375 8.003906 4.484375 8.039062 4.484375 8.070312 C 4.480469 8.082031 4.480469 8.082031 4.480469 8.097656 C 4.480469 8.160156 4.480469 8.160156 4.46875 8.171875 C 4.445312 8.171875 4.425781 8.171875 4.402344 8.171875 C 4.394531 8.171875 4.386719 8.171875 4.378906 8.171875 C 4.355469 8.167969 4.328125 8.167969 4.304688 8.167969 C 4.289062 8.167969 4.273438 8.167969 4.253906 8.167969 C 4.21875 8.167969 4.183594 8.167969 4.148438 8.167969 C 4.101562 8.167969 4.058594 8.164062 4.011719 8.164062 C 3.976562 8.164062 3.941406 8.164062 3.90625 8.164062 C 3.890625 8.164062 3.871094 8.164062 3.855469 8.164062 C 3.730469 8.160156 3.605469 8.15625 3.480469 8.148438 C 3.480469 7.835938 3.480469 7.519531 3.484375 7.207031 C 3.484375 7.195312 3.484375 7.195312 3.484375 7.183594 C 3.484375 7.121094 3.488281 7.058594 3.488281 6.992188 C 3.492188 6.828125 3.492188 6.664062 3.496094 6.496094 C 3.496094 6.488281 3.496094 6.484375 3.496094 6.476562 C 3.5 6.230469 3.503906 5.984375 3.503906 5.738281 C 3.503906 5.707031 3.503906 5.675781 3.503906 5.640625 C 3.507812 5.417969 3.507812 5.417969 3.460938 5.199219 C 3.457031 5.191406 3.453125 5.179688 3.453125 5.171875 C 3.445312 5.148438 3.4375 5.128906 3.425781 5.105469 C 3.425781 5.097656 3.421875 5.089844 3.417969 5.082031 C 3.394531 5.023438 3.363281 4.972656 3.320312 4.921875 C 3.3125 4.910156 3.304688 4.902344 3.296875 4.890625 C 3.167969 4.726562 3.011719 4.636719 2.808594 4.578125 C 2.800781 4.578125 2.792969 4.574219 2.78125 4.570312 C 2.53125 4.5 2.234375 4.542969 2.007812 4.667969 C 1.855469 4.753906 1.746094 4.871094 1.671875 5.03125 C 1.664062 5.03125 1.65625 5.03125 1.648438 5.03125 C 1.644531 5.050781 1.636719 5.070312 1.628906 5.09375 C 1.625 5.109375 1.617188 5.128906 1.609375 5.148438 C 1.546875 5.339844 1.535156 5.527344 1.53125 5.726562 C 1.53125 5.753906 1.53125 5.78125 1.53125 5.808594 C 1.53125 5.863281 1.527344 5.917969 1.527344 5.976562 C 1.527344 6.054688 1.527344 6.136719 1.523438 6.21875 C 1.523438 6.347656 1.523438 6.480469 1.519531 6.613281 C 1.519531 6.738281 1.515625 6.867188 1.515625 6.996094 C 1.515625 7.003906 1.515625 7.011719 1.515625 7.019531 C 1.515625 7.058594 1.511719 7.097656 1.511719 7.136719 C 1.507812 7.464844 1.503906 7.792969 1.5 8.121094 C 1.421875 8.121094 1.347656 8.121094 1.269531 8.121094 C 1.246094 8.121094 1.21875 8.121094 1.191406 8.121094 C 0.960938 8.121094 0.730469 8.117188 0.5 8.109375 C 0.496094 7.570312 0.503906 7.027344 0.511719 6.488281 C 0.511719 6.394531 0.515625 6.304688 0.515625 6.210938 C 0.515625 6.121094 0.519531 6.027344 0.519531 5.9375 C 0.519531 5.882812 0.523438 5.832031 0.523438 5.777344 C 0.523438 5.726562 0.523438 5.675781 0.523438 5.628906 C 0.523438 5.609375 0.523438 5.589844 0.523438 5.574219 C 0.527344 5.472656 0.53125 5.378906 0.550781 5.28125 C 0.554688 5.257812 0.554688 5.238281 0.558594 5.21875 C 0.601562 4.953125 0.601562 4.953125 0.65625 4.832031 C 0.664062 4.808594 0.675781 4.789062 0.683594 4.765625 C 0.722656 4.664062 0.773438 4.574219 0.828125 4.480469 C 0.835938 4.472656 0.839844 4.460938 0.847656 4.453125 C 0.882812 4.394531 0.929688 4.339844 0.976562 4.289062 C 1 4.261719 1 4.261719 1.019531 4.230469 C 1.027344 4.230469 1.03125 4.230469 1.039062 4.230469 C 1.042969 4.222656 1.042969 4.21875 1.046875 4.214844 C 1.0625 4.1875 1.082031 4.171875 1.105469 4.152344 C 1.121094 4.140625 1.121094 4.140625 1.140625 4.117188 C 1.226562 4.03125 1.328125 3.96875 1.429688 3.910156 C 1.4375 3.90625 1.441406 3.902344 1.449219 3.898438 C 1.6875 3.757812 2.332031 3.5 2.609375 3.640625 Z M 2.609375 3.640625 "/>
<path style=" stroke:none;fill-rule:nonzero;fill:rgb(23.529412%,71.372551%,77.64706%);fill-opacity:1;" d="M 6.789062 0 C 6.804688 0 6.816406 0 6.828125 0 C 6.832031 0.015625 6.835938 0.03125 6.839844 0.046875 C 6.84375 0.0585938 6.84375 0.0664062 6.847656 0.0742188 C 6.851562 0.101562 6.851562 0.101562 6.839844 0.121094 C 6.851562 0.125 6.851562 0.125 6.859375 0.128906 C 6.867188 0.152344 6.867188 0.152344 6.875 0.183594 C 6.949219 0.496094 7.148438 0.796875 7.371094 1.03125 C 7.375 1.039062 7.382812 1.042969 7.390625 1.050781 C 7.4375 1.101562 7.488281 1.140625 7.539062 1.179688 C 7.566406 1.195312 7.589844 1.214844 7.613281 1.234375 C 7.675781 1.285156 7.753906 1.320312 7.828125 1.359375 C 7.828125 1.367188 7.828125 1.375 7.828125 1.378906 C 7.84375 1.382812 7.84375 1.382812 7.855469 1.386719 C 7.894531 1.402344 7.929688 1.417969 7.96875 1.433594 C 7.984375 1.4375 8 1.445312 8.015625 1.453125 C 8.042969 1.460938 8.070312 1.472656 8.097656 1.488281 C 8.179688 1.519531 8.257812 1.542969 8.347656 1.5625 C 8.378906 1.570312 8.378906 1.570312 8.398438 1.578125 C 8.398438 1.585938 8.398438 1.59375 8.398438 1.601562 C 8.394531 1.601562 8.386719 1.601562 8.378906 1.605469 C 8.109375 1.675781 7.828125 1.757812 7.601562 1.925781 C 7.578125 1.941406 7.578125 1.941406 7.550781 1.949219 C 7.550781 1.957031 7.550781 1.964844 7.550781 1.96875 C 7.535156 1.980469 7.519531 1.992188 7.503906 2.003906 C 7.445312 2.042969 7.398438 2.085938 7.347656 2.136719 C 7.320312 2.160156 7.320312 2.160156 7.292969 2.179688 C 7.265625 2.203125 7.242188 2.234375 7.21875 2.265625 C 7.210938 2.269531 7.207031 2.277344 7.203125 2.285156 C 7.191406 2.296875 7.183594 2.308594 7.175781 2.320312 C 7.160156 2.339844 7.148438 2.355469 7.136719 2.371094 C 7.074219 2.449219 7.027344 2.53125 6.980469 2.621094 C 6.972656 2.621094 6.96875 2.621094 6.960938 2.621094 C 6.957031 2.632812 6.953125 2.644531 6.949219 2.65625 C 6.933594 2.695312 6.917969 2.734375 6.902344 2.773438 C 6.875 2.832031 6.855469 2.894531 6.832031 2.957031 C 6.828125 2.964844 6.828125 2.976562 6.824219 2.984375 C 6.804688 3.042969 6.789062 3.101562 6.78125 3.160156 C 6.769531 3.160156 6.761719 3.160156 6.75 3.160156 C 6.746094 3.148438 6.746094 3.132812 6.742188 3.121094 C 6.683594 2.863281 6.59375 2.585938 6.425781 2.378906 C 6.410156 2.359375 6.410156 2.359375 6.390625 2.328125 C 6.367188 2.285156 6.339844 2.253906 6.304688 2.21875 C 6.296875 2.207031 6.285156 2.195312 6.273438 2.183594 C 6.265625 2.179688 6.261719 2.171875 6.257812 2.167969 C 6.238281 2.148438 6.222656 2.132812 6.210938 2.113281 C 6.183594 2.082031 6.15625 2.058594 6.125 2.035156 C 6.09375 2.007812 6.0625 1.984375 6.03125 1.953125 C 5.972656 1.898438 5.894531 1.855469 5.820312 1.820312 C 5.820312 1.8125 5.820312 1.808594 5.820312 1.800781 C 5.8125 1.796875 5.804688 1.792969 5.800781 1.792969 C 5.765625 1.777344 5.730469 1.761719 5.699219 1.746094 C 5.683594 1.738281 5.671875 1.734375 5.65625 1.726562 C 5.652344 1.722656 5.644531 1.722656 5.636719 1.71875 C 5.601562 1.703125 5.566406 1.683594 5.53125 1.671875 C 5.515625 1.664062 5.515625 1.664062 5.503906 1.660156 C 5.410156 1.621094 5.316406 1.597656 5.21875 1.574219 C 5.199219 1.570312 5.199219 1.570312 5.179688 1.558594 C 5.179688 1.550781 5.179688 1.539062 5.179688 1.53125 C 5.199219 1.527344 5.199219 1.527344 5.21875 1.523438 C 5.53125 1.453125 5.824219 1.324219 6.078125 1.128906 C 6.089844 1.121094 6.097656 1.117188 6.109375 1.109375 C 6.25 0.996094 6.367188 0.863281 6.472656 0.714844 C 6.484375 0.699219 6.496094 0.683594 6.507812 0.667969 C 6.578125 0.574219 6.632812 0.460938 6.671875 0.351562 C 6.675781 0.351562 6.683594 0.351562 6.691406 0.351562 C 6.691406 0.34375 6.691406 0.339844 6.695312 0.332031 C 6.714844 0.257812 6.734375 0.183594 6.757812 0.109375 C 6.769531 0.0742188 6.78125 0.0351562 6.789062 0 Z M 6.789062 0 "/>
<path style=" stroke:none;fill-rule:nonzero;fill:rgb(23.529412%,71.372551%,77.64706%);fill-opacity:1;" d="M 8.699219 1.851562 C 8.710938 1.851562 8.71875 1.851562 8.730469 1.851562 C 8.734375 1.867188 8.734375 1.867188 8.738281 1.882812 C 8.785156 2.070312 8.867188 2.238281 9 2.378906 C 9.007812 2.386719 9.015625 2.398438 9.023438 2.40625 C 9.160156 2.53125 9.332031 2.605469 9.511719 2.648438 C 9.511719 2.660156 9.511719 2.667969 9.511719 2.679688 C 9.492188 2.683594 9.492188 2.683594 9.472656 2.6875 C 9.242188 2.742188 9.046875 2.851562 8.898438 3.039062 C 8.890625 3.054688 8.890625 3.054688 8.878906 3.066406 C 8.804688 3.160156 8.757812 3.273438 8.726562 3.390625 C 8.71875 3.410156 8.710938 3.429688 8.699219 3.449219 C 8.691406 3.449219 8.679688 3.449219 8.671875 3.449219 C 8.667969 3.441406 8.664062 3.429688 8.664062 3.421875 C 8.621094 3.226562 8.539062 3.0625 8.398438 2.921875 C 8.390625 2.910156 8.382812 2.902344 8.375 2.894531 C 8.257812 2.78125 8.085938 2.703125 7.929688 2.667969 C 7.917969 2.664062 7.910156 2.664062 7.898438 2.660156 C 7.898438 2.648438 7.894531 2.640625 7.890625 2.628906 C 7.894531 2.628906 7.902344 2.628906 7.90625 2.625 C 8.183594 2.554688 8.425781 2.421875 8.578125 2.171875 C 8.605469 2.125 8.625 2.078125 8.644531 2.027344 C 8.648438 2.011719 8.65625 1.996094 8.664062 1.980469 C 8.679688 1.9375 8.695312 1.898438 8.699219 1.851562 Z M 8.699219 1.851562 "/>
<path style=" stroke:none;fill-rule:nonzero;fill:rgb(23.529412%,71.372551%,77.64706%);fill-opacity:1;" d="M 7.191406 9.140625 C 7.191406 9.148438 7.191406 9.152344 7.191406 9.160156 C 7.199219 9.164062 7.199219 9.164062 7.210938 9.167969 C 7.320312 9.214844 7.386719 9.300781 7.429688 9.40625 C 7.457031 9.492188 7.464844 9.582031 7.460938 9.675781 C 7.460938 9.6875 7.460938 9.699219 7.460938 9.707031 C 7.460938 9.789062 7.457031 9.867188 7.453125 9.949219 C 7.453125 9.964844 7.453125 9.964844 7.449219 9.980469 C 7.445312 10.066406 7.425781 10.15625 7.359375 10.21875 C 7.214844 10.339844 7.046875 10.324219 6.871094 10.320312 C 6.859375 10.277344 6.859375 10.238281 6.863281 10.191406 C 6.863281 10.183594 6.867188 10.179688 6.867188 10.171875 C 6.867188 10.152344 6.867188 10.136719 6.871094 10.121094 C 6.875 10.121094 6.882812 10.121094 6.886719 10.121094 C 6.914062 10.121094 6.941406 10.117188 6.96875 10.117188 C 6.980469 10.117188 6.988281 10.117188 6.996094 10.117188 C 7.0625 10.113281 7.117188 10.105469 7.171875 10.070312 C 7.1875 10.050781 7.199219 10.035156 7.210938 10.011719 C 7.207031 10.007812 7.203125 10.003906 7.199219 10 C 7.191406 10.003906 7.191406 10.003906 7.179688 10.011719 C 7.0625 10.070312 6.941406 10.09375 6.8125 10.058594 C 6.738281 10.03125 6.675781 9.972656 6.621094 9.921875 C 6.613281 9.914062 6.605469 9.90625 6.601562 9.902344 C 6.519531 9.8125 6.496094 9.671875 6.496094 9.554688 C 6.507812 9.425781 6.5625 9.304688 6.660156 9.222656 C 6.816406 9.113281 7.007812 9.058594 7.191406 9.140625 Z M 6.796875 9.394531 C 6.738281 9.46875 6.726562 9.542969 6.730469 9.632812 C 6.746094 9.707031 6.78125 9.769531 6.832031 9.824219 C 6.910156 9.867188 6.972656 9.878906 7.058594 9.859375 C 7.125 9.839844 7.171875 9.796875 7.210938 9.738281 C 7.246094 9.667969 7.253906 9.582031 7.230469 9.503906 C 7.199219 9.417969 7.160156 9.363281 7.078125 9.320312 C 6.976562 9.285156 6.871094 9.3125 6.796875 9.394531 Z M 6.796875 9.394531 "/>
<path style=" stroke:none;fill-rule:nonzero;fill:rgb(23.529412%,71.372551%,77.64706%);fill-opacity:1;" d="M 9.613281 9.230469 C 9.710938 9.304688 9.777344 9.417969 9.796875 9.542969 C 9.800781 9.589844 9.804688 9.640625 9.800781 9.691406 C 9.789062 9.699219 9.789062 9.699219 9.761719 9.703125 C 9.742188 9.699219 9.742188 9.699219 9.722656 9.699219 C 9.714844 9.699219 9.710938 9.699219 9.703125 9.699219 C 9.679688 9.699219 9.65625 9.699219 9.632812 9.699219 C 9.617188 9.699219 9.601562 9.699219 9.585938 9.699219 C 9.542969 9.699219 9.503906 9.699219 9.460938 9.699219 C 9.417969 9.699219 9.375 9.699219 9.332031 9.699219 C 9.246094 9.699219 9.164062 9.699219 9.078125 9.699219 C 9.085938 9.714844 9.09375 9.730469 9.097656 9.742188 C 9.101562 9.75 9.105469 9.757812 9.109375 9.765625 C 9.136719 9.828125 9.179688 9.855469 9.238281 9.878906 C 9.300781 9.898438 9.367188 9.898438 9.425781 9.875 C 9.433594 9.871094 9.441406 9.863281 9.449219 9.859375 C 9.457031 9.859375 9.464844 9.859375 9.46875 9.859375 C 9.472656 9.855469 9.476562 9.847656 9.476562 9.84375 C 9.5 9.804688 9.515625 9.769531 9.550781 9.738281 C 9.589844 9.730469 9.625 9.730469 9.664062 9.734375 C 9.675781 9.734375 9.683594 9.734375 9.695312 9.734375 C 9.71875 9.738281 9.746094 9.738281 9.769531 9.738281 C 9.785156 9.792969 9.765625 9.820312 9.742188 9.867188 C 9.671875 9.976562 9.570312 10.054688 9.445312 10.09375 C 9.316406 10.121094 9.183594 10.101562 9.070312 10.039062 C 9.011719 10 8.964844 9.949219 8.921875 9.898438 C 8.921875 9.894531 8.921875 9.886719 8.921875 9.878906 C 8.914062 9.878906 8.90625 9.878906 8.898438 9.878906 C 8.828125 9.71875 8.808594 9.597656 8.871094 9.429688 C 8.921875 9.308594 9.011719 9.226562 9.128906 9.171875 C 9.300781 9.105469 9.457031 9.132812 9.613281 9.230469 Z M 9.136719 9.417969 C 9.113281 9.445312 9.113281 9.445312 9.089844 9.511719 C 9.242188 9.511719 9.394531 9.511719 9.550781 9.511719 C 9.527344 9.445312 9.519531 9.433594 9.46875 9.390625 C 9.464844 9.390625 9.457031 9.390625 9.449219 9.390625 C 9.449219 9.382812 9.449219 9.375 9.449219 9.371094 C 9.339844 9.308594 9.222656 9.332031 9.136719 9.417969 Z M 9.136719 9.417969 "/>
<path style=" stroke:none;fill-rule:nonzero;fill:rgb(23.529412%,71.372551%,77.64706%);fill-opacity:1;" d="M 2.480469 9.039062 C 2.488281 9.042969 2.496094 9.042969 2.507812 9.046875 C 2.636719 9.070312 2.742188 9.128906 2.820312 9.238281 C 2.894531 9.363281 2.898438 9.449219 2.898438 9.601562 C 2.664062 9.601562 2.425781 9.601562 2.179688 9.601562 C 2.238281 9.71875 2.238281 9.71875 2.34375 9.777344 C 2.40625 9.796875 2.464844 9.796875 2.527344 9.78125 C 2.566406 9.757812 2.585938 9.730469 2.613281 9.691406 C 2.628906 9.671875 2.640625 9.65625 2.660156 9.640625 C 2.683594 9.636719 2.683594 9.636719 2.707031 9.636719 C 2.722656 9.636719 2.722656 9.636719 2.738281 9.636719 C 2.746094 9.636719 2.757812 9.636719 2.765625 9.636719 C 2.777344 9.636719 2.785156 9.636719 2.796875 9.636719 C 2.820312 9.640625 2.84375 9.640625 2.871094 9.640625 C 2.882812 9.691406 2.871094 9.714844 2.847656 9.761719 C 2.773438 9.875 2.671875 9.953125 2.542969 9.992188 C 2.414062 10.019531 2.285156 10.003906 2.167969 9.9375 C 2.0625 9.867188 1.976562 9.761719 1.945312 9.636719 C 1.917969 9.480469 1.957031 9.339844 2.042969 9.210938 C 2.128906 9.101562 2.25 9.050781 2.382812 9.03125 C 2.417969 9.03125 2.445312 9.03125 2.480469 9.039062 Z M 2.222656 9.339844 C 2.207031 9.363281 2.207031 9.363281 2.191406 9.410156 C 2.34375 9.410156 2.5 9.410156 2.660156 9.410156 C 2.625 9.335938 2.625 9.335938 2.574219 9.292969 C 2.566406 9.28125 2.566406 9.28125 2.554688 9.273438 C 2.4375 9.203125 2.304688 9.238281 2.222656 9.339844 Z M 2.222656 9.339844 "/>
<path style=" stroke:none;fill-rule:nonzero;fill:rgb(23.529412%,71.372551%,77.64706%);fill-opacity:1;" d="M 13.628906 9.28125 C 13.640625 9.285156 13.648438 9.292969 13.65625 9.296875 C 13.757812 9.367188 13.8125 9.472656 13.839844 9.589844 C 13.839844 9.644531 13.839844 9.703125 13.839844 9.761719 C 13.601562 9.761719 13.363281 9.761719 13.121094 9.761719 C 13.175781 9.878906 13.175781 9.878906 13.28125 9.941406 C 13.351562 9.957031 13.414062 9.949219 13.480469 9.921875 C 13.523438 9.890625 13.554688 9.859375 13.578125 9.808594 C 13.605469 9.796875 13.621094 9.800781 13.648438 9.800781 C 13.65625 9.800781 13.667969 9.800781 13.675781 9.800781 C 13.6875 9.800781 13.695312 9.800781 13.707031 9.800781 C 13.722656 9.800781 13.722656 9.800781 13.734375 9.800781 C 13.761719 9.800781 13.785156 9.800781 13.808594 9.800781 C 13.824219 9.839844 13.808594 9.859375 13.792969 9.898438 C 13.765625 9.949219 13.734375 9.988281 13.691406 10.03125 C 13.683594 10.035156 13.679688 10.039062 13.675781 10.042969 C 13.578125 10.136719 13.449219 10.164062 13.320312 10.164062 C 13.203125 10.152344 13.121094 10.117188 13.039062 10.039062 C 13.027344 10.027344 13.027344 10.027344 13.011719 10.015625 C 12.90625 9.894531 12.871094 9.769531 12.878906 9.609375 C 12.886719 9.53125 12.914062 9.445312 12.96875 9.390625 C 12.976562 9.382812 12.980469 9.378906 12.984375 9.371094 C 13.148438 9.167969 13.421875 9.144531 13.628906 9.28125 Z M 13.171875 9.480469 C 13.15625 9.503906 13.140625 9.53125 13.128906 9.558594 C 13.179688 9.574219 13.226562 9.570312 13.273438 9.570312 C 13.285156 9.570312 13.292969 9.570312 13.300781 9.570312 C 13.332031 9.570312 13.359375 9.570312 13.386719 9.570312 C 13.40625 9.570312 13.425781 9.570312 13.445312 9.570312 C 13.496094 9.570312 13.542969 9.570312 13.589844 9.570312 C 13.570312 9.507812 13.546875 9.464844 13.488281 9.425781 C 13.378906 9.371094 13.257812 9.390625 13.171875 9.480469 Z M 13.171875 9.480469 "/>
<path style=" stroke:none;fill-rule:nonzero;fill:rgb(23.529412%,71.372551%,77.64706%);fill-opacity:1;" d="M 3.726562 9.117188 C 3.75 9.136719 3.777344 9.15625 3.800781 9.179688 C 3.808594 9.1875 3.816406 9.191406 3.820312 9.199219 C 3.894531 9.265625 3.945312 9.363281 3.953125 9.460938 C 3.953125 9.484375 3.953125 9.507812 3.953125 9.53125 C 3.953125 9.542969 3.953125 9.550781 3.953125 9.5625 C 3.949219 9.707031 3.945312 9.855469 3.941406 10 C 3.867188 10 3.792969 10 3.71875 10 C 3.714844 9.980469 3.714844 9.960938 3.710938 9.941406 C 3.703125 9.945312 3.695312 9.949219 3.6875 9.953125 C 3.574219 10.011719 3.460938 10.046875 3.332031 10.007812 C 3.277344 9.988281 3.230469 9.953125 3.179688 9.921875 C 3.171875 9.914062 3.167969 9.910156 3.160156 9.90625 C 3.078125 9.84375 3.023438 9.730469 3.003906 9.628906 C 2.984375 9.484375 3.007812 9.355469 3.097656 9.238281 C 3.246094 9.0625 3.527344 8.980469 3.726562 9.117188 Z M 3.289062 9.351562 C 3.238281 9.417969 3.21875 9.488281 3.230469 9.570312 C 3.246094 9.652344 3.269531 9.726562 3.339844 9.78125 C 3.410156 9.820312 3.476562 9.832031 3.554688 9.808594 C 3.605469 9.789062 3.644531 9.761719 3.679688 9.71875 C 3.695312 9.6875 3.695312 9.6875 3.699219 9.660156 C 3.707031 9.660156 3.714844 9.660156 3.71875 9.660156 C 3.753906 9.542969 3.738281 9.457031 3.683594 9.347656 C 3.636719 9.292969 3.582031 9.265625 3.515625 9.257812 C 3.421875 9.253906 3.351562 9.277344 3.289062 9.351562 Z M 3.289062 9.351562 "/>
<path style=" stroke:none;fill-rule:nonzero;fill:rgb(23.529412%,71.372551%,77.64706%);fill-opacity:1;" d="M 1.195312 9.074219 C 1.214844 9.085938 1.230469 9.097656 1.25 9.109375 C 1.257812 9.117188 1.265625 9.121094 1.273438 9.125 C 1.355469 9.1875 1.425781 9.296875 1.4375 9.398438 C 1.441406 9.417969 1.441406 9.441406 1.441406 9.460938 C 1.363281 9.460938 1.285156 9.460938 1.210938 9.449219 C 1.207031 9.441406 1.207031 9.4375 1.203125 9.429688 C 1.179688 9.351562 1.144531 9.296875 1.078125 9.25 C 1.007812 9.21875 0.933594 9.21875 0.863281 9.246094 C 0.792969 9.28125 0.753906 9.335938 0.730469 9.410156 C 0.699219 9.511719 0.714844 9.585938 0.765625 9.675781 C 0.796875 9.722656 0.835938 9.746094 0.886719 9.765625 C 0.957031 9.777344 1.027344 9.769531 1.09375 9.734375 C 1.15625 9.6875 1.171875 9.644531 1.199219 9.570312 C 1.277344 9.570312 1.351562 9.570312 1.429688 9.570312 C 1.417969 9.679688 1.382812 9.773438 1.300781 9.851562 C 1.171875 9.953125 1.042969 9.996094 0.878906 9.980469 C 0.785156 9.960938 0.707031 9.929688 0.640625 9.859375 C 0.632812 9.855469 0.628906 9.851562 0.625 9.84375 C 0.527344 9.753906 0.476562 9.648438 0.46875 9.515625 C 0.476562 9.371094 0.527344 9.238281 0.632812 9.136719 C 0.789062 9.003906 1.015625 8.96875 1.195312 9.074219 Z M 1.195312 9.074219 "/>
<path style=" stroke:none;fill-rule:nonzero;fill:rgb(23.529412%,71.372551%,77.64706%);fill-opacity:1;" d="M 12.601562 9.269531 C 12.625 9.296875 12.648438 9.320312 12.671875 9.351562 C 12.675781 9.355469 12.683594 9.363281 12.6875 9.371094 C 12.753906 9.449219 12.777344 9.519531 12.789062 9.621094 C 12.714844 9.621094 12.636719 9.621094 12.558594 9.621094 C 12.554688 9.601562 12.546875 9.582031 12.539062 9.5625 C 12.507812 9.492188 12.484375 9.449219 12.414062 9.417969 C 12.335938 9.390625 12.257812 9.375 12.179688 9.410156 C 12.175781 9.425781 12.175781 9.425781 12.171875 9.441406 C 12.164062 9.445312 12.15625 9.449219 12.148438 9.457031 C 12.082031 9.511719 12.0625 9.597656 12.054688 9.679688 C 12.058594 9.761719 12.089844 9.824219 12.148438 9.878906 C 12.210938 9.929688 12.257812 9.945312 12.339844 9.941406 C 12.402344 9.925781 12.457031 9.90625 12.492188 9.847656 C 12.515625 9.808594 12.535156 9.773438 12.550781 9.730469 C 12.628906 9.730469 12.703125 9.730469 12.78125 9.738281 C 12.765625 9.851562 12.714844 9.957031 12.632812 10.03125 C 12.515625 10.125 12.386719 10.164062 12.242188 10.152344 C 12.113281 10.136719 11.996094 10.058594 11.917969 9.960938 C 11.824219 9.832031 11.808594 9.714844 11.828125 9.558594 C 11.847656 9.480469 11.875 9.417969 11.929688 9.359375 C 11.9375 9.351562 11.941406 9.347656 11.949219 9.339844 C 12.117188 9.160156 12.398438 9.125 12.601562 9.269531 Z M 12.601562 9.269531 "/>
<path style=" stroke:none;fill-rule:nonzero;fill:rgb(23.529412%,71.372551%,77.64706%);fill-opacity:1;" d="M 4.808594 9.144531 C 4.902344 9.214844 4.945312 9.304688 4.960938 9.421875 C 4.960938 9.457031 4.960938 9.496094 4.960938 9.535156 C 4.960938 9.546875 4.960938 9.558594 4.960938 9.570312 C 4.960938 9.667969 4.957031 9.761719 4.957031 9.859375 C 4.957031 9.867188 4.957031 9.875 4.953125 9.882812 C 4.953125 9.902344 4.953125 9.925781 4.953125 9.945312 C 4.953125 9.957031 4.953125 9.96875 4.953125 9.984375 C 4.949219 10.011719 4.949219 10.011719 4.941406 10.019531 C 4.925781 10.019531 4.910156 10.019531 4.894531 10.019531 C 4.882812 10.019531 4.875 10.019531 4.863281 10.019531 C 4.855469 10.019531 4.84375 10.019531 4.835938 10.019531 C 4.824219 10.019531 4.8125 10.019531 4.804688 10.019531 C 4.78125 10.019531 4.753906 10.019531 4.730469 10.019531 C 4.722656 9.964844 4.71875 9.914062 4.71875 9.859375 C 4.71875 9.847656 4.71875 9.839844 4.71875 9.832031 C 4.71875 9.777344 4.71875 9.722656 4.722656 9.667969 C 4.722656 9.65625 4.722656 9.644531 4.722656 9.632812 C 4.726562 9.609375 4.726562 9.585938 4.726562 9.5625 C 4.730469 9.480469 4.734375 9.398438 4.683594 9.332031 C 4.644531 9.289062 4.601562 9.269531 4.546875 9.269531 C 4.488281 9.273438 4.445312 9.285156 4.398438 9.320312 C 4.382812 9.34375 4.382812 9.34375 4.371094 9.371094 C 4.363281 9.375 4.355469 9.375 4.351562 9.378906 C 4.351562 9.386719 4.351562 9.394531 4.351562 9.402344 C 4.347656 9.476562 4.347656 9.550781 4.347656 9.621094 C 4.347656 9.660156 4.34375 9.695312 4.34375 9.734375 C 4.34375 9.769531 4.34375 9.804688 4.34375 9.84375 C 4.34375 9.855469 4.34375 9.871094 4.34375 9.882812 C 4.34375 9.902344 4.34375 9.921875 4.34375 9.941406 C 4.34375 9.953125 4.339844 9.964844 4.339844 9.976562 C 4.339844 10 4.339844 10 4.328125 10.011719 C 4.316406 10.011719 4.300781 10.011719 4.285156 10.011719 C 4.269531 10.011719 4.269531 10.011719 4.253906 10.011719 C 4.238281 10.011719 4.238281 10.011719 4.226562 10.011719 C 4.214844 10.011719 4.207031 10.011719 4.195312 10.011719 C 4.1875 10.011719 4.175781 10.011719 4.167969 10.011719 C 4.15625 10.011719 4.148438 10.011719 4.140625 10.011719 C 4.121094 10.011719 4.121094 10.011719 4.109375 10 C 4.109375 9.984375 4.109375 9.964844 4.109375 9.949219 C 4.109375 9.9375 4.109375 9.925781 4.109375 9.917969 C 4.109375 9.90625 4.109375 9.894531 4.109375 9.878906 C 4.109375 9.867188 4.109375 9.855469 4.109375 9.84375 C 4.109375 9.816406 4.109375 9.792969 4.109375 9.765625 C 4.109375 9.726562 4.105469 9.6875 4.105469 9.648438 C 4.105469 9.625 4.105469 9.597656 4.105469 9.574219 C 4.105469 9.5625 4.105469 9.550781 4.105469 9.539062 C 4.105469 9.402344 4.140625 9.269531 4.234375 9.164062 C 4.390625 9.023438 4.636719 9.03125 4.808594 9.144531 Z M 4.808594 9.144531 "/>
<path style=" stroke:none;fill-rule:nonzero;fill:rgb(23.529412%,71.372551%,77.64706%);fill-opacity:1;" d="M 8.578125 9.160156 C 8.652344 9.210938 8.710938 9.269531 8.722656 9.355469 C 8.726562 9.382812 8.730469 9.40625 8.730469 9.429688 C 8.574219 9.433594 8.574219 9.433594 8.5 9.421875 C 8.496094 9.410156 8.496094 9.398438 8.492188 9.386719 C 8.484375 9.347656 8.484375 9.347656 8.453125 9.335938 C 8.390625 9.324219 8.347656 9.324219 8.289062 9.359375 C 8.277344 9.371094 8.277344 9.371094 8.277344 9.402344 C 8.292969 9.445312 8.292969 9.445312 8.328125 9.464844 C 8.378906 9.488281 8.429688 9.5 8.480469 9.515625 C 8.582031 9.542969 8.667969 9.570312 8.730469 9.660156 C 8.765625 9.722656 8.761719 9.820312 8.742188 9.886719 C 8.734375 9.90625 8.722656 9.921875 8.710938 9.941406 C 8.699219 9.957031 8.699219 9.957031 8.6875 9.972656 C 8.621094 10.046875 8.519531 10.085938 8.421875 10.09375 C 8.300781 10.097656 8.21875 10.085938 8.132812 10.003906 C 8.074219 9.949219 8.039062 9.898438 8.019531 9.820312 C 8.019531 9.785156 8.019531 9.753906 8.019531 9.71875 C 8.09375 9.71875 8.164062 9.71875 8.238281 9.71875 C 8.246094 9.75 8.253906 9.78125 8.261719 9.808594 C 8.273438 9.84375 8.28125 9.855469 8.316406 9.875 C 8.390625 9.886719 8.4375 9.882812 8.5 9.851562 C 8.515625 9.839844 8.515625 9.839844 8.511719 9.808594 C 8.511719 9.769531 8.511719 9.769531 8.496094 9.75 C 8.433594 9.703125 8.367188 9.6875 8.296875 9.664062 C 8.136719 9.621094 8.136719 9.621094 8.089844 9.550781 C 8.089844 9.542969 8.089844 9.535156 8.089844 9.53125 C 8.082031 9.53125 8.078125 9.53125 8.070312 9.53125 C 8.035156 9.453125 8.03125 9.382812 8.058594 9.304688 C 8.09375 9.226562 8.144531 9.183594 8.21875 9.148438 C 8.332031 9.101562 8.472656 9.097656 8.578125 9.160156 Z M 8.578125 9.160156 "/>
<path style=" stroke:none;fill-rule:nonzero;fill:rgb(23.529412%,71.372551%,77.64706%);fill-opacity:1;" d="M 14.527344 9.269531 C 14.59375 9.324219 14.625 9.398438 14.640625 9.480469 C 14.640625 9.488281 14.640625 9.492188 14.640625 9.5 C 14.628906 9.511719 14.628906 9.511719 14.609375 9.511719 C 14.597656 9.511719 14.589844 9.511719 14.578125 9.511719 C 14.5625 9.511719 14.5625 9.511719 14.546875 9.511719 C 14.535156 9.511719 14.527344 9.511719 14.515625 9.511719 C 14.496094 9.511719 14.496094 9.511719 14.480469 9.511719 C 14.453125 9.511719 14.425781 9.511719 14.398438 9.511719 C 14.394531 9.5 14.390625 9.488281 14.386719 9.476562 C 14.371094 9.4375 14.371094 9.4375 14.34375 9.421875 C 14.292969 9.40625 14.253906 9.414062 14.207031 9.425781 C 14.1875 9.441406 14.1875 9.441406 14.179688 9.464844 C 14.179688 9.492188 14.183594 9.503906 14.199219 9.53125 C 14.246094 9.5625 14.304688 9.574219 14.359375 9.585938 C 14.417969 9.601562 14.46875 9.621094 14.519531 9.648438 C 14.527344 9.652344 14.535156 9.65625 14.539062 9.660156 C 14.59375 9.6875 14.625 9.722656 14.652344 9.777344 C 14.667969 9.839844 14.675781 9.921875 14.640625 9.980469 C 14.585938 10.066406 14.535156 10.125 14.441406 10.160156 C 14.429688 10.164062 14.417969 10.167969 14.40625 10.171875 C 14.285156 10.195312 14.164062 10.171875 14.058594 10.109375 C 14.050781 10.105469 14.050781 10.105469 14.039062 10.097656 C 13.980469 10.054688 13.953125 9.988281 13.929688 9.921875 C 13.925781 9.882812 13.921875 9.847656 13.921875 9.808594 C 13.996094 9.808594 14.070312 9.808594 14.148438 9.808594 C 14.15625 9.839844 14.164062 9.871094 14.171875 9.898438 C 14.199219 9.941406 14.199219 9.941406 14.238281 9.96875 C 14.246094 9.96875 14.253906 9.96875 14.261719 9.96875 C 14.273438 9.972656 14.285156 9.972656 14.296875 9.972656 C 14.339844 9.972656 14.371094 9.960938 14.410156 9.941406 C 14.425781 9.910156 14.421875 9.882812 14.421875 9.851562 C 14.417969 9.839844 14.414062 9.832031 14.410156 9.820312 C 14.367188 9.800781 14.324219 9.789062 14.277344 9.78125 C 14.15625 9.75 14.050781 9.710938 13.96875 9.609375 C 13.9375 9.542969 13.945312 9.457031 13.96875 9.386719 C 14.003906 9.304688 14.070312 9.25 14.148438 9.21875 C 14.15625 9.214844 14.164062 9.210938 14.171875 9.210938 C 14.175781 9.207031 14.179688 9.207031 14.1875 9.203125 C 14.300781 9.183594 14.429688 9.210938 14.527344 9.269531 Z M 14.527344 9.269531 "/>
<path style=" stroke:none;fill-rule:nonzero;fill:rgb(23.529412%,71.372551%,77.64706%);fill-opacity:1;" d="M 6.261719 9.191406 C 6.332031 9.257812 6.375 9.351562 6.382812 9.449219 C 6.382812 9.488281 6.378906 9.527344 6.378906 9.5625 C 6.378906 9.578125 6.378906 9.589844 6.378906 9.605469 C 6.378906 9.640625 6.378906 9.675781 6.375 9.714844 C 6.375 9.75 6.375 9.785156 6.375 9.824219 C 6.375 9.894531 6.371094 9.96875 6.371094 10.039062 C 6.296875 10.039062 6.226562 10.039062 6.148438 10.039062 C 6.148438 10.015625 6.148438 10.015625 6.152344 9.988281 C 6.152344 9.933594 6.152344 9.878906 6.152344 9.820312 C 6.152344 9.789062 6.152344 9.753906 6.152344 9.722656 C 6.152344 9.683594 6.152344 9.644531 6.152344 9.605469 C 6.152344 9.59375 6.152344 9.582031 6.152344 9.566406 C 6.152344 9.453125 6.152344 9.453125 6.105469 9.351562 C 6.0625 9.3125 6.015625 9.289062 5.957031 9.289062 C 5.898438 9.292969 5.851562 9.308594 5.808594 9.351562 C 5.769531 9.410156 5.765625 9.46875 5.765625 9.535156 C 5.765625 9.546875 5.765625 9.546875 5.765625 9.5625 C 5.765625 9.589844 5.765625 9.621094 5.765625 9.648438 C 5.765625 9.6875 5.761719 9.722656 5.761719 9.761719 C 5.761719 9.773438 5.761719 9.78125 5.761719 9.789062 C 5.761719 9.871094 5.753906 9.949219 5.75 10.03125 C 5.675781 10.03125 5.605469 10.03125 5.53125 10.03125 C 5.53125 9.949219 5.53125 9.867188 5.53125 9.785156 C 5.53125 9.746094 5.53125 9.707031 5.53125 9.671875 C 5.53125 9.632812 5.535156 9.597656 5.535156 9.5625 C 5.535156 9.546875 5.535156 9.53125 5.535156 9.519531 C 5.535156 9.378906 5.570312 9.277344 5.664062 9.175781 C 5.703125 9.136719 5.75 9.117188 5.800781 9.101562 C 5.804688 9.097656 5.8125 9.09375 5.820312 9.089844 C 5.957031 9.042969 6.152344 9.101562 6.261719 9.191406 Z M 6.261719 9.191406 "/>
<path style=" stroke:none;fill-rule:nonzero;fill:rgb(23.529412%,71.372551%,77.64706%);fill-opacity:1;" d="M 10.429688 9.171875 C 10.5 9.171875 10.570312 9.171875 10.640625 9.171875 C 10.667969 9.242188 10.699219 9.316406 10.726562 9.390625 C 10.738281 9.425781 10.75 9.457031 10.761719 9.492188 C 10.765625 9.5 10.765625 9.5 10.769531 9.511719 C 10.804688 9.609375 10.84375 9.710938 10.878906 9.808594 C 10.90625 9.785156 10.910156 9.761719 10.925781 9.726562 C 10.925781 9.722656 10.929688 9.714844 10.929688 9.710938 C 10.9375 9.691406 10.945312 9.671875 10.953125 9.652344 C 10.984375 9.570312 11.011719 9.492188 11.046875 9.414062 C 11.066406 9.375 11.082031 9.332031 11.097656 9.289062 C 11.101562 9.273438 11.109375 9.257812 11.117188 9.238281 C 11.117188 9.234375 11.121094 9.226562 11.125 9.21875 C 11.128906 9.199219 11.128906 9.199219 11.140625 9.179688 C 11.210938 9.179688 11.285156 9.179688 11.359375 9.179688 C 11.347656 9.257812 11.347656 9.257812 11.332031 9.300781 C 11.324219 9.3125 11.324219 9.3125 11.320312 9.328125 C 11.316406 9.335938 11.3125 9.34375 11.308594 9.355469 C 11.304688 9.363281 11.300781 9.371094 11.296875 9.382812 C 11.289062 9.40625 11.28125 9.425781 11.269531 9.449219 C 11.261719 9.449219 11.257812 9.449219 11.25 9.449219 C 11.246094 9.460938 11.246094 9.472656 11.242188 9.488281 C 11.230469 9.550781 11.207031 9.605469 11.183594 9.664062 C 11.175781 9.675781 11.171875 9.6875 11.167969 9.695312 C 11.144531 9.753906 11.121094 9.808594 11.09375 9.867188 C 11.066406 9.917969 11.046875 9.96875 11.027344 10.023438 C 11.023438 10.035156 11.023438 10.035156 11.019531 10.046875 C 11.015625 10.054688 11.011719 10.0625 11.007812 10.070312 C 11 10.089844 11 10.089844 10.980469 10.109375 C 10.957031 10.113281 10.957031 10.113281 10.933594 10.109375 C 10.917969 10.109375 10.917969 10.109375 10.902344 10.109375 C 10.894531 10.109375 10.882812 10.105469 10.875 10.105469 C 10.859375 10.105469 10.859375 10.105469 10.84375 10.105469 C 10.820312 10.101562 10.792969 10.101562 10.769531 10.101562 C 10.75 10.050781 10.730469 10.003906 10.714844 9.953125 C 10.707031 9.9375 10.699219 9.921875 10.695312 9.90625 C 10.65625 9.808594 10.621094 9.710938 10.582031 9.617188 C 10.566406 9.566406 10.546875 9.519531 10.527344 9.46875 C 10.519531 9.445312 10.507812 9.417969 10.5 9.394531 C 10.492188 9.378906 10.488281 9.363281 10.480469 9.347656 C 10.46875 9.316406 10.460938 9.292969 10.460938 9.261719 C 10.453125 9.257812 10.445312 9.253906 10.441406 9.25 C 10.441406 9.238281 10.441406 9.222656 10.441406 9.210938 C 10.433594 9.207031 10.425781 9.203125 10.421875 9.199219 C 10.421875 9.191406 10.425781 9.179688 10.429688 9.171875 Z M 10.429688 9.171875 "/>
<path style=" stroke:none;fill-rule:nonzero;fill:rgb(23.529412%,71.372551%,77.64706%);fill-opacity:1;" d="M 1.589844 8.828125 C 1.664062 8.832031 1.734375 8.835938 1.808594 8.839844 C 1.808594 9.019531 1.808594 9.199219 1.804688 9.378906 C 1.804688 9.40625 1.804688 9.4375 1.804688 9.46875 C 1.804688 9.632812 1.800781 9.800781 1.789062 9.96875 C 1.765625 9.96875 1.738281 9.96875 1.710938 9.96875 C 1.691406 9.96875 1.671875 9.972656 1.652344 9.972656 C 1.644531 9.972656 1.636719 9.972656 1.625 9.972656 C 1.617188 9.972656 1.609375 9.972656 1.601562 9.972656 C 1.578125 9.96875 1.578125 9.96875 1.570312 9.960938 C 1.570312 9.929688 1.570312 9.902344 1.570312 9.871094 C 1.570312 9.859375 1.570312 9.851562 1.570312 9.839844 C 1.570312 9.710938 1.570312 9.578125 1.574219 9.445312 C 1.574219 9.414062 1.574219 9.386719 1.574219 9.355469 C 1.578125 9.179688 1.582031 9.003906 1.589844 8.828125 Z M 1.589844 8.828125 "/>
<path style=" stroke:none;fill-rule:nonzero;fill:rgb(23.529412%,71.372551%,77.64706%);fill-opacity:1;" d="M 10.359375 9.148438 C 10.355469 9.214844 10.351562 9.28125 10.351562 9.351562 C 10.335938 9.355469 10.320312 9.359375 10.304688 9.363281 C 10.246094 9.378906 10.203125 9.394531 10.175781 9.449219 C 10.152344 9.503906 10.152344 9.566406 10.152344 9.628906 C 10.152344 9.640625 10.152344 9.65625 10.152344 9.667969 C 10.152344 9.703125 10.148438 9.738281 10.148438 9.773438 C 10.148438 9.808594 10.148438 9.84375 10.144531 9.878906 C 10.144531 9.949219 10.140625 10.019531 10.140625 10.089844 C 10.105469 10.089844 10.066406 10.089844 10.03125 10.089844 C 10.015625 10.089844 10.015625 10.089844 10 10.089844 C 9.988281 10.089844 9.980469 10.089844 9.96875 10.089844 C 9.957031 10.089844 9.957031 10.089844 9.941406 10.089844 C 9.921875 10.089844 9.921875 10.089844 9.910156 10.078125 C 9.910156 10.046875 9.910156 10.019531 9.910156 9.984375 C 9.910156 9.976562 9.910156 9.964844 9.910156 9.957031 C 9.910156 9.921875 9.910156 9.886719 9.910156 9.851562 C 9.910156 9.84375 9.910156 9.835938 9.910156 9.828125 C 9.910156 9.78125 9.910156 9.738281 9.914062 9.691406 C 9.914062 9.675781 9.914062 9.660156 9.914062 9.644531 C 9.914062 9.507812 9.921875 9.382812 10.019531 9.28125 C 10.027344 9.273438 10.03125 9.265625 10.039062 9.261719 C 10.128906 9.171875 10.238281 9.148438 10.359375 9.148438 Z M 10.359375 9.148438 "/>
<path style=" stroke:none;fill-rule:nonzero;fill:rgb(23.529412%,71.372551%,77.64706%);fill-opacity:1;" d="M 5.140625 9.089844 C 5.175781 9.089844 5.214844 9.09375 5.25 9.09375 C 5.261719 9.09375 5.269531 9.09375 5.28125 9.09375 C 5.289062 9.097656 5.300781 9.097656 5.3125 9.097656 C 5.324219 9.097656 5.324219 9.097656 5.339844 9.097656 C 5.359375 9.101562 5.359375 9.101562 5.371094 9.109375 C 5.371094 9.128906 5.371094 9.144531 5.371094 9.164062 C 5.371094 9.175781 5.371094 9.1875 5.371094 9.199219 C 5.371094 9.210938 5.371094 9.226562 5.371094 9.238281 C 5.371094 9.246094 5.371094 9.253906 5.371094 9.261719 C 5.371094 9.410156 5.367188 9.558594 5.367188 9.707031 C 5.367188 9.730469 5.367188 9.757812 5.363281 9.785156 C 5.363281 9.820312 5.363281 9.859375 5.363281 9.894531 C 5.363281 9.90625 5.363281 9.917969 5.363281 9.929688 C 5.363281 9.941406 5.363281 9.949219 5.363281 9.960938 C 5.363281 9.972656 5.363281 9.980469 5.363281 9.988281 C 5.359375 10.011719 5.359375 10.011719 5.351562 10.019531 C 5.332031 10.019531 5.316406 10.019531 5.300781 10.019531 C 5.289062 10.019531 5.28125 10.019531 5.269531 10.019531 C 5.261719 10.019531 5.25 10.019531 5.238281 10.019531 C 5.230469 10.019531 5.21875 10.019531 5.207031 10.019531 C 5.183594 10.019531 5.15625 10.019531 5.128906 10.019531 C 5.128906 9.710938 5.128906 9.398438 5.140625 9.089844 Z M 5.140625 9.089844 "/>
<path style=" stroke:none;fill-rule:nonzero;fill:rgb(23.529412%,71.372551%,77.64706%);fill-opacity:1;" d="M 11.46875 9.191406 C 11.542969 9.191406 11.613281 9.191406 11.691406 9.191406 C 11.6875 9.300781 11.6875 9.410156 11.6875 9.523438 C 11.6875 9.574219 11.683594 9.625 11.683594 9.675781 C 11.683594 9.726562 11.683594 9.777344 11.683594 9.828125 C 11.683594 9.84375 11.683594 9.863281 11.683594 9.882812 C 11.683594 9.910156 11.683594 9.9375 11.683594 9.964844 C 11.683594 9.972656 11.683594 9.980469 11.683594 9.988281 C 11.679688 10.03125 11.675781 10.074219 11.671875 10.121094 C 11.636719 10.117188 11.601562 10.117188 11.566406 10.117188 C 11.554688 10.113281 11.546875 10.113281 11.535156 10.113281 C 11.527344 10.113281 11.515625 10.113281 11.507812 10.113281 C 11.5 10.113281 11.488281 10.113281 11.480469 10.113281 C 11.460938 10.109375 11.460938 10.109375 11.449219 10.101562 C 11.449219 10.078125 11.449219 10.054688 11.449219 10.035156 C 11.449219 10.023438 11.449219 10.023438 11.449219 10.011719 C 11.449219 9.988281 11.449219 9.964844 11.449219 9.941406 C 11.449219 9.925781 11.453125 9.910156 11.453125 9.894531 C 11.453125 9.859375 11.453125 9.828125 11.453125 9.792969 C 11.453125 9.75 11.453125 9.707031 11.453125 9.664062 C 11.457031 9.628906 11.457031 9.597656 11.457031 9.5625 C 11.457031 9.546875 11.457031 9.53125 11.457031 9.515625 C 11.457031 9.40625 11.464844 9.296875 11.46875 9.191406 Z M 11.46875 9.191406 "/>
</g>
</svg>
