<?xml version="1.0" encoding="UTF-8"?>
<svg xmlns="http://www.w3.org/2000/svg" xmlns:xlink="http://www.w3.org/1999/xlink" width="60px" height="48px" viewBox="0 0 60 48" version="1.1">
<g id="surface1">
<path style=" stroke:none;fill-rule:nonzero;fill:rgb(23.529412%,71.372551%,77.64706%);fill-opacity:1;" d="M 52.992188 15.804688 C 53.222656 15.914062 53.453125 16.011719 53.6875 16.113281 C 53.746094 16.136719 53.746094 16.136719 53.804688 16.164062 C 53.894531 16.203125 53.988281 16.242188 54.078125 16.28125 C 54.078125 16.304688 54.078125 16.332031 54.078125 16.359375 C 54.113281 16.371094 54.144531 16.378906 54.179688 16.386719 C 54.351562 16.449219 54.5 16.535156 54.65625 16.628906 C 54.683594 16.644531 54.714844 16.664062 54.746094 16.683594 C 54.925781 16.789062 55.082031 16.898438 55.230469 17.042969 C 55.359375 17.15625 55.503906 17.253906 55.640625 17.359375 C 55.847656 17.507812 56.027344 17.65625 56.1875 17.855469 C 56.261719 17.945312 56.351562 18.007812 56.441406 18.078125 C 56.441406 18.105469 56.441406 18.132812 56.441406 18.160156 C 56.464844 18.160156 56.492188 18.160156 56.519531 18.160156 C 56.574219 18.21875 56.574219 18.21875 56.636719 18.304688 C 56.765625 18.476562 56.898438 18.644531 57.03125 18.8125 C 57.183594 19.007812 57.339844 19.207031 57.476562 19.414062 C 57.496094 19.445312 57.515625 19.472656 57.535156 19.503906 C 57.558594 19.535156 57.578125 19.566406 57.601562 19.601562 C 57.625 19.636719 57.652344 19.675781 57.679688 19.714844 C 58.34375 20.738281 58.886719 22.210938 58.878906 23.441406 C 58.472656 23.441406 58.0625 23.441406 57.65625 23.441406 C 57.609375 23.441406 57.609375 23.441406 57.5625 23.441406 C 56.617188 23.445312 55.667969 23.4375 54.71875 23.398438 C 54.671875 23.238281 54.632812 23.085938 54.609375 22.921875 C 54.570312 22.699219 54.503906 22.492188 54.425781 22.28125 C 54.386719 22.167969 54.359375 22.082031 54.359375 21.960938 C 54.332031 21.945312 54.308594 21.933594 54.28125 21.921875 C 54.230469 21.824219 54.179688 21.726562 54.136719 21.628906 C 53.8125 20.964844 53.371094 20.386719 52.800781 19.921875 C 52.746094 19.875 52.746094 19.875 52.691406 19.828125 C 52.34375 19.550781 51.945312 19.339844 51.519531 19.199219 C 51.519531 19.171875 51.519531 19.148438 51.519531 19.121094 C 51.398438 19.09375 51.28125 19.066406 51.160156 19.039062 C 51.113281 19.03125 51.070312 19.019531 51.023438 19.007812 C 50.976562 19 50.925781 18.988281 50.878906 18.976562 C 50.832031 18.96875 50.789062 18.957031 50.742188 18.949219 C 49.53125 18.714844 48.289062 18.914062 47.238281 19.558594 C 47.210938 19.582031 47.183594 19.605469 47.152344 19.628906 C 47.078125 19.679688 47.078125 19.679688 47 19.679688 C 47 19.707031 47 19.734375 47 19.761719 C 46.933594 19.8125 46.863281 19.863281 46.796875 19.910156 C 46.320312 20.253906 45.9375 20.660156 45.640625 21.167969 C 45.597656 21.242188 45.554688 21.3125 45.507812 21.382812 C 45.210938 21.84375 45.039062 22.335938 44.90625 22.863281 C 44.878906 22.960938 44.878906 22.960938 44.839844 23.074219 C 44.59375 23.84375 44.683594 24.773438 44.800781 25.558594 C 44.804688 25.597656 44.8125 25.640625 44.816406 25.679688 C 44.894531 26.171875 45.070312 26.640625 45.273438 27.09375 C 45.320312 27.199219 45.320312 27.199219 45.320312 27.28125 C 45.347656 27.292969 45.371094 27.304688 45.398438 27.320312 C 45.441406 27.382812 45.480469 27.445312 45.519531 27.507812 C 45.988281 28.253906 46.515625 28.917969 47.320312 29.320312 C 47.320312 29.347656 47.320312 29.371094 47.320312 29.398438 C 47.347656 29.410156 47.375 29.421875 47.40625 29.433594 C 47.480469 29.464844 47.558594 29.496094 47.632812 29.53125 C 47.921875 29.664062 48.210938 29.765625 48.515625 29.851562 C 48.554688 29.863281 48.589844 29.871094 48.625 29.882812 C 49.398438 30.097656 50.230469 30.046875 51 29.839844 C 51.027344 29.832031 51.054688 29.828125 51.082031 29.820312 C 51.722656 29.648438 52.332031 29.304688 52.839844 28.878906 C 52.894531 28.835938 52.894531 28.835938 52.945312 28.792969 C 53.441406 28.363281 53.851562 27.796875 54.121094 27.199219 C 54.144531 27.199219 54.171875 27.199219 54.199219 27.199219 C 54.210938 27.167969 54.210938 27.167969 54.222656 27.132812 C 54.273438 26.972656 54.328125 26.8125 54.382812 26.652344 C 54.398438 26.605469 54.398438 26.605469 54.414062 26.558594 C 54.433594 26.496094 54.457031 26.433594 54.476562 26.371094 C 54.488281 26.34375 54.496094 26.3125 54.507812 26.28125 C 54.515625 26.253906 54.527344 26.226562 54.535156 26.199219 C 54.558594 26.121094 54.582031 26.039062 54.601562 25.960938 C 55.007812 25.957031 55.414062 25.957031 55.824219 25.957031 C 55.851562 25.957031 55.882812 25.957031 55.914062 25.957031 C 56.875 25.957031 57.835938 25.964844 58.800781 26 C 58.734375 26.40625 58.625 26.804688 58.519531 27.199219 C 58.511719 27.226562 58.503906 27.257812 58.496094 27.285156 C 58.394531 27.664062 58.226562 28.019531 58.0625 28.375 C 58.046875 28.410156 58.046875 28.410156 58.027344 28.449219 C 57.894531 28.742188 57.746094 29.015625 57.558594 29.28125 C 57.523438 29.339844 57.484375 29.394531 57.445312 29.453125 C 57.410156 29.511719 57.371094 29.570312 57.332031 29.628906 C 57.3125 29.660156 57.296875 29.6875 57.277344 29.714844 C 56.957031 30.203125 56.550781 30.628906 56.136719 31.039062 C 56.113281 31.0625 56.09375 31.085938 56.070312 31.109375 C 55.699219 31.476562 55.324219 31.800781 54.878906 32.078125 C 54.839844 32.105469 54.839844 32.105469 54.800781 32.128906 C 54.632812 32.238281 54.457031 32.339844 54.28125 32.441406 C 54.253906 32.453125 54.230469 32.46875 54.203125 32.484375 C 52.460938 33.480469 50.417969 33.824219 48.441406 33.546875 C 48.410156 33.542969 48.382812 33.539062 48.351562 33.535156 C 47.773438 33.453125 47.234375 33.316406 46.6875 33.121094 C 46.660156 33.113281 46.632812 33.105469 46.605469 33.09375 C 45.949219 32.859375 45.335938 32.554688 44.761719 32.160156 C 44.726562 32.136719 44.691406 32.113281 44.65625 32.089844 C 44.550781 32.019531 44.445312 31.945312 44.339844 31.871094 C 44.304688 31.847656 44.269531 31.824219 44.230469 31.796875 C 44.179688 31.761719 44.179688 31.761719 44.125 31.726562 C 44.09375 31.703125 44.0625 31.683594 44.03125 31.660156 C 43.960938 31.601562 43.960938 31.601562 43.921875 31.480469 C 43.84375 31.4375 43.84375 31.4375 43.761719 31.398438 C 43.34375 31.097656 43 30.71875 42.679688 30.320312 C 42.652344 30.289062 42.628906 30.253906 42.601562 30.222656 C 42.53125 30.136719 42.464844 30.046875 42.398438 29.960938 C 42.371094 29.925781 42.34375 29.890625 42.316406 29.851562 C 40.976562 28.117188 40.40625 25.882812 40.558594 23.71875 C 40.5625 23.675781 40.566406 23.628906 40.570312 23.582031 C 40.636719 22.6875 40.859375 21.84375 41.160156 21 C 41.1875 21 41.210938 21 41.238281 21 C 41.253906 20.949219 41.269531 20.902344 41.289062 20.851562 C 41.460938 20.335938 41.707031 19.898438 42 19.441406 C 42.015625 19.417969 42.03125 19.390625 42.046875 19.367188 C 42.207031 19.109375 42.382812 18.882812 42.589844 18.660156 C 42.679688 18.558594 42.765625 18.457031 42.847656 18.351562 C 43.265625 17.839844 43.746094 17.425781 44.28125 17.039062 C 44.3125 17.019531 44.339844 16.996094 44.371094 16.972656 C 45.675781 16.046875 47.140625 15.414062 48.742188 15.289062 C 48.808594 15.28125 48.875 15.277344 48.941406 15.269531 C 50.21875 15.140625 51.816406 15.234375 52.992188 15.804688 Z M 52.992188 15.804688 "/>
<path style=" stroke:none;fill-rule:nonzero;fill:rgb(23.529412%,71.372551%,77.64706%);fill-opacity:1;" d="M 33.121094 15.601562 C 33.15625 15.617188 33.191406 15.628906 33.230469 15.648438 C 33.78125 15.886719 34.296875 16.152344 34.800781 16.480469 C 34.847656 16.511719 34.894531 16.542969 34.945312 16.570312 C 35.144531 16.703125 35.3125 16.828125 35.480469 17 C 35.589844 17.097656 35.707031 17.191406 35.820312 17.28125 C 35.996094 17.425781 35.996094 17.425781 36.039062 17.558594 C 36.09375 17.585938 36.144531 17.613281 36.199219 17.640625 C 36.257812 17.691406 36.316406 17.746094 36.371094 17.800781 C 36.414062 17.84375 36.414062 17.84375 36.457031 17.886719 C 36.519531 17.960938 36.519531 17.960938 36.519531 18.039062 C 36.542969 18.050781 36.566406 18.058594 36.589844 18.066406 C 36.703125 18.132812 36.753906 18.210938 36.828125 18.316406 C 36.859375 18.359375 36.886719 18.398438 36.914062 18.4375 C 36.941406 18.480469 36.972656 18.519531 37 18.558594 C 37.023438 18.59375 37.050781 18.625 37.074219 18.660156 C 37.621094 19.375 38.132812 20.25 38.382812 21.121094 C 38.390625 21.152344 38.402344 21.183594 38.410156 21.214844 C 38.421875 21.25 38.429688 21.285156 38.441406 21.320312 C 38.453125 21.363281 38.464844 21.402344 38.476562 21.445312 C 38.53125 21.636719 38.574219 21.824219 38.621094 22.015625 C 38.632812 22.066406 38.632812 22.066406 38.644531 22.121094 C 38.726562 22.464844 38.761719 22.808594 38.800781 23.160156 C 37.414062 23.167969 36.027344 23.148438 34.640625 23.121094 C 34.628906 23.070312 34.621094 23.023438 34.609375 22.976562 C 34.507812 22.5 34.507812 22.5 34.371094 22.035156 C 34.355469 21.992188 34.355469 21.992188 34.339844 21.945312 C 34.121094 21.320312 33.777344 20.753906 33.359375 20.238281 C 33.339844 20.214844 33.324219 20.191406 33.304688 20.167969 C 33.125 19.945312 32.902344 19.777344 32.679688 19.601562 C 32.636719 19.5625 32.636719 19.5625 32.589844 19.523438 C 32.339844 19.3125 32.054688 19.179688 31.761719 19.039062 C 31.761719 19.011719 31.761719 18.988281 31.761719 18.960938 C 30.300781 18.507812 28.933594 18.371094 27.515625 19.074219 C 27.394531 19.136719 27.277344 19.207031 27.160156 19.28125 C 27.136719 19.292969 27.113281 19.308594 27.089844 19.324219 C 26.148438 19.917969 25.3125 20.929688 25.011719 22.015625 C 25.007812 22.035156 25.003906 22.058594 25 22.078125 C 24.972656 22.078125 24.945312 22.078125 24.921875 22.078125 C 24.914062 22.101562 24.910156 22.125 24.90625 22.148438 C 24.898438 22.179688 24.894531 22.210938 24.886719 22.246094 C 24.878906 22.28125 24.871094 22.320312 24.867188 22.359375 C 24.847656 22.4375 24.832031 22.519531 24.8125 22.597656 C 24.421875 24.210938 24.65625 25.882812 25.480469 27.320312 C 25.996094 28.136719 26.679688 28.792969 27.558594 29.199219 C 27.558594 29.226562 27.558594 29.253906 27.558594 29.28125 C 27.875 29.390625 28.195312 29.488281 28.515625 29.578125 C 28.589844 29.597656 28.664062 29.617188 28.734375 29.640625 C 29.851562 29.925781 31.09375 29.640625 32.082031 29.085938 C 32.554688 28.804688 32.96875 28.460938 33.320312 28.039062 C 33.351562 28.003906 33.382812 27.96875 33.417969 27.929688 C 33.757812 27.535156 33.988281 27.128906 34.1875 26.648438 C 34.226562 26.546875 34.273438 26.453125 34.324219 26.359375 C 34.398438 26.214844 34.441406 26.066406 34.484375 25.910156 C 34.5 25.859375 34.511719 25.808594 34.527344 25.757812 C 34.539062 25.71875 34.550781 25.679688 34.558594 25.640625 C 34.984375 25.644531 35.410156 25.648438 35.832031 25.652344 C 36.03125 25.65625 36.226562 25.65625 36.425781 25.660156 C 36.613281 25.660156 36.804688 25.664062 36.996094 25.667969 C 37.070312 25.667969 37.140625 25.667969 37.214844 25.667969 C 37.714844 25.671875 38.21875 25.691406 38.71875 25.71875 C 38.691406 25.878906 38.660156 26.035156 38.628906 26.191406 C 38.617188 26.257812 38.617188 26.257812 38.605469 26.324219 C 38.546875 26.617188 38.46875 26.882812 38.359375 27.160156 C 38.335938 27.226562 38.3125 27.292969 38.289062 27.363281 C 38.125 27.8125 37.929688 28.226562 37.683594 28.640625 C 37.625 28.746094 37.570312 28.859375 37.515625 28.96875 C 37.46875 29.0625 37.417969 29.152344 37.359375 29.238281 C 37.332031 29.238281 37.308594 29.238281 37.28125 29.238281 C 37.269531 29.261719 37.261719 29.28125 37.25 29.304688 C 37.183594 29.429688 37.101562 29.546875 37.015625 29.664062 C 37 29.691406 36.980469 29.714844 36.964844 29.738281 C 36.828125 29.925781 36.679688 30.101562 36.523438 30.269531 C 36.449219 30.351562 36.375 30.433594 36.304688 30.519531 C 36.03125 30.832031 35.707031 31.09375 35.386719 31.355469 C 35.320312 31.410156 35.25 31.464844 35.183594 31.519531 C 34.902344 31.757812 34.597656 31.941406 34.28125 32.121094 C 34.25 32.136719 34.21875 32.15625 34.183594 32.171875 C 33.292969 32.671875 32.351562 33.003906 31.351562 33.210938 C 31.320312 33.214844 31.292969 33.222656 31.261719 33.226562 C 30.707031 33.335938 30.164062 33.375 29.601562 33.351562 C 29.570312 33.351562 29.539062 33.351562 29.507812 33.347656 C 28.328125 33.308594 27.273438 33.066406 26.160156 32.679688 C 26.160156 32.652344 26.160156 32.628906 26.160156 32.601562 C 26.140625 32.59375 26.117188 32.585938 26.09375 32.582031 C 25.851562 32.503906 25.625 32.402344 25.398438 32.292969 C 25.34375 32.265625 25.34375 32.265625 25.292969 32.242188 C 25.207031 32.203125 25.125 32.160156 25.039062 32.121094 C 25.039062 32.09375 25.039062 32.066406 25.039062 32.039062 C 24.996094 32.023438 24.996094 32.023438 24.953125 32.007812 C 24.769531 31.929688 24.605469 31.816406 24.441406 31.707031 C 24.40625 31.683594 24.367188 31.660156 24.332031 31.636719 C 24.148438 31.519531 23.992188 31.402344 23.839844 31.238281 C 23.75 31.160156 23.65625 31.085938 23.566406 31.007812 C 23.386719 30.855469 23.21875 30.703125 23.070312 30.519531 C 22.984375 30.421875 22.890625 30.335938 22.796875 30.246094 C 21.269531 28.757812 20.5 26.386719 20.46875 24.296875 C 20.464844 23.308594 20.503906 22.191406 20.914062 21.273438 C 20.953125 21.175781 20.984375 21.082031 21.019531 20.984375 C 21.167969 20.527344 21.351562 20.125 21.597656 19.714844 C 21.652344 19.617188 21.703125 19.515625 21.753906 19.414062 C 21.90625 19.132812 22.109375 18.886719 22.304688 18.636719 C 22.359375 18.5625 22.414062 18.484375 22.46875 18.40625 C 22.535156 18.3125 22.597656 18.242188 22.679688 18.160156 C 22.722656 18.113281 22.761719 18.066406 22.800781 18.015625 C 23.277344 17.472656 23.828125 17.035156 24.398438 16.601562 C 24.4375 16.570312 24.472656 16.542969 24.511719 16.515625 C 25.746094 15.609375 27.296875 15.144531 28.800781 14.960938 C 28.832031 14.957031 28.863281 14.953125 28.894531 14.949219 C 30.28125 14.78125 31.835938 15.046875 33.121094 15.601562 Z M 33.121094 15.601562 "/>
<path style=" stroke:none;fill-rule:nonzero;fill:rgb(23.529412%,71.372551%,77.64706%);fill-opacity:1;" d="M 10.441406 14.558594 C 10.507812 14.566406 10.574219 14.570312 10.644531 14.574219 C 11.09375 14.605469 11.539062 14.640625 11.984375 14.71875 C 12.023438 14.722656 12.058594 14.730469 12.097656 14.738281 C 12.28125 14.769531 12.453125 14.8125 12.628906 14.882812 C 12.84375 14.96875 13.0625 15.035156 13.28125 15.109375 C 13.328125 15.125 13.378906 15.140625 13.433594 15.15625 C 13.554688 15.199219 13.675781 15.238281 13.800781 15.28125 C 13.800781 15.304688 13.800781 15.332031 13.800781 15.359375 C 13.832031 15.371094 13.832031 15.371094 13.867188 15.378906 C 14.109375 15.453125 14.320312 15.558594 14.542969 15.6875 C 14.574219 15.707031 14.609375 15.722656 14.640625 15.742188 C 14.722656 15.789062 14.800781 15.835938 14.878906 15.878906 C 14.878906 15.90625 14.878906 15.933594 14.878906 15.960938 C 14.90625 15.96875 14.933594 15.976562 14.960938 15.988281 C 15.113281 16.054688 15.230469 16.148438 15.359375 16.253906 C 15.382812 16.269531 15.410156 16.289062 15.433594 16.308594 C 15.578125 16.425781 15.710938 16.546875 15.839844 16.679688 C 15.878906 16.71875 15.921875 16.757812 15.960938 16.796875 C 16.234375 17.0625 16.464844 17.328125 16.679688 17.640625 C 16.71875 17.691406 16.71875 17.691406 16.757812 17.742188 C 17.457031 18.652344 17.8125 19.804688 17.988281 20.925781 C 17.996094 20.957031 18 20.984375 18.003906 21.015625 C 18.089844 21.609375 18.085938 22.207031 18.074219 22.804688 C 18.074219 22.882812 18.070312 22.960938 18.070312 23.039062 C 18.066406 23.25 18.066406 23.460938 18.0625 23.671875 C 18.058594 23.898438 18.054688 24.121094 18.050781 24.34375 C 18.046875 24.722656 18.039062 25.101562 18.035156 25.480469 C 18.027344 26.003906 18.019531 26.527344 18.011719 27.050781 C 17.996094 27.90625 17.984375 28.757812 17.972656 29.613281 C 17.964844 30.015625 17.957031 30.421875 17.953125 30.828125 C 17.949219 31.082031 17.945312 31.339844 17.941406 31.59375 C 17.9375 31.691406 17.9375 31.792969 17.9375 31.890625 C 17.933594 32.019531 17.933594 32.148438 17.929688 32.277344 C 17.929688 32.332031 17.929688 32.332031 17.929688 32.390625 C 17.925781 32.636719 17.925781 32.636719 17.878906 32.679688 C 17.785156 32.683594 17.695312 32.683594 17.601562 32.679688 C 17.574219 32.679688 17.542969 32.679688 17.515625 32.679688 C 17.417969 32.679688 17.320312 32.679688 17.222656 32.675781 C 17.15625 32.675781 17.085938 32.675781 17.019531 32.675781 C 16.875 32.671875 16.734375 32.671875 16.589844 32.667969 C 16.410156 32.664062 16.226562 32.664062 16.046875 32.660156 C 15.90625 32.660156 15.765625 32.65625 15.625 32.65625 C 15.558594 32.65625 15.492188 32.652344 15.425781 32.652344 C 14.921875 32.648438 14.421875 32.625 13.921875 32.601562 C 13.914062 31.339844 13.917969 30.082031 13.9375 28.824219 C 13.9375 28.785156 13.9375 28.785156 13.9375 28.742188 C 13.941406 28.484375 13.945312 28.226562 13.953125 27.96875 C 13.960938 27.308594 13.972656 26.652344 13.980469 25.992188 C 13.980469 25.960938 13.980469 25.929688 13.984375 25.902344 C 13.996094 24.917969 14.011719 23.9375 14.015625 22.953125 C 14.015625 22.824219 14.015625 22.695312 14.015625 22.566406 C 14.027344 21.671875 14.027344 21.671875 13.839844 20.800781 C 13.828125 20.761719 13.816406 20.726562 13.804688 20.6875 C 13.777344 20.597656 13.742188 20.511719 13.707031 20.421875 C 13.695312 20.390625 13.683594 20.363281 13.671875 20.332031 C 13.570312 20.089844 13.445312 19.882812 13.28125 19.679688 C 13.25 19.644531 13.222656 19.605469 13.195312 19.566406 C 12.671875 18.90625 12.042969 18.546875 11.238281 18.320312 C 11.203125 18.308594 11.164062 18.296875 11.128906 18.285156 C 10.121094 17.992188 8.941406 18.179688 8.027344 18.671875 C 7.414062 19.023438 6.984375 19.484375 6.679688 20.121094 C 6.652344 20.121094 6.628906 20.121094 6.601562 20.121094 C 6.570312 20.203125 6.542969 20.285156 6.515625 20.367188 C 6.492188 20.441406 6.46875 20.515625 6.441406 20.589844 C 6.191406 21.355469 6.132812 22.109375 6.128906 22.910156 C 6.125 23.015625 6.125 23.121094 6.121094 23.226562 C 6.117188 23.449219 6.117188 23.675781 6.113281 23.898438 C 6.109375 24.222656 6.105469 24.546875 6.101562 24.871094 C 6.09375 25.398438 6.085938 25.921875 6.078125 26.449219 C 6.074219 26.960938 6.066406 27.46875 6.058594 27.980469 C 6.058594 28.011719 6.058594 28.042969 6.058594 28.074219 C 6.054688 28.234375 6.054688 28.394531 6.050781 28.550781 C 6.035156 29.859375 6.015625 31.171875 6 32.480469 C 5.695312 32.480469 5.386719 32.480469 5.082031 32.480469 C 4.976562 32.480469 4.875 32.480469 4.769531 32.480469 C 3.847656 32.484375 2.921875 32.46875 2 32.441406 C 1.988281 30.277344 2.015625 28.117188 2.050781 25.953125 C 2.054688 25.582031 2.058594 25.210938 2.066406 24.84375 C 2.070312 24.480469 2.074219 24.117188 2.082031 23.753906 C 2.082031 23.539062 2.085938 23.324219 2.089844 23.109375 C 2.09375 22.910156 2.09375 22.707031 2.097656 22.507812 C 2.097656 22.4375 2.101562 22.363281 2.101562 22.289062 C 2.105469 21.894531 2.128906 21.511719 2.199219 21.121094 C 2.214844 21.039062 2.226562 20.957031 2.238281 20.875 C 2.410156 19.820312 2.410156 19.820312 2.625 19.328125 C 2.664062 19.238281 2.699219 19.148438 2.730469 19.058594 C 2.886719 18.652344 3.089844 18.289062 3.320312 17.921875 C 3.339844 17.886719 3.363281 17.851562 3.382812 17.816406 C 3.535156 17.578125 3.71875 17.367188 3.90625 17.152344 C 4 17.042969 4 17.042969 4.078125 16.921875 C 4.105469 16.921875 4.132812 16.921875 4.160156 16.921875 C 4.167969 16.898438 4.175781 16.875 4.183594 16.851562 C 4.246094 16.75 4.324219 16.6875 4.417969 16.609375 C 4.488281 16.554688 4.488281 16.554688 4.570312 16.46875 C 4.914062 16.132812 5.308594 15.882812 5.71875 15.640625 C 5.746094 15.625 5.769531 15.609375 5.792969 15.597656 C 6.753906 15.035156 9.332031 14.007812 10.441406 14.558594 Z M 10.441406 14.558594 "/>
<path style=" stroke:none;fill-rule:nonzero;fill:rgb(23.529412%,71.372551%,77.64706%);fill-opacity:1;" d="M 27.160156 0 C 27.210938 0 27.265625 0 27.320312 0 C 27.335938 0.0664062 27.347656 0.128906 27.363281 0.195312 C 27.371094 0.230469 27.378906 0.265625 27.386719 0.304688 C 27.398438 0.398438 27.398438 0.398438 27.359375 0.480469 C 27.398438 0.5 27.398438 0.5 27.441406 0.519531 C 27.46875 0.609375 27.46875 0.609375 27.492188 0.730469 C 27.789062 1.988281 28.597656 3.191406 29.480469 4.121094 C 29.507812 4.148438 29.535156 4.179688 29.5625 4.207031 C 29.746094 4.402344 29.949219 4.558594 30.164062 4.714844 C 30.261719 4.785156 30.355469 4.863281 30.449219 4.941406 C 30.710938 5.148438 31.023438 5.289062 31.320312 5.441406 C 31.320312 5.464844 31.320312 5.492188 31.320312 5.519531 C 31.371094 5.535156 31.371094 5.535156 31.421875 5.550781 C 31.574219 5.605469 31.726562 5.667969 31.878906 5.730469 C 31.9375 5.753906 32 5.78125 32.058594 5.804688 C 32.171875 5.851562 32.28125 5.898438 32.394531 5.945312 C 32.71875 6.082031 33.039062 6.175781 33.382812 6.25 C 33.519531 6.28125 33.519531 6.28125 33.601562 6.320312 C 33.601562 6.347656 33.601562 6.371094 33.601562 6.398438 C 33.574219 6.40625 33.546875 6.414062 33.515625 6.421875 C 32.433594 6.699219 31.316406 7.035156 30.402344 7.703125 C 30.320312 7.761719 30.320312 7.761719 30.199219 7.800781 C 30.199219 7.828125 30.199219 7.851562 30.199219 7.878906 C 30.136719 7.929688 30.074219 7.972656 30.011719 8.015625 C 29.785156 8.175781 29.589844 8.351562 29.390625 8.539062 C 29.28125 8.640625 29.28125 8.640625 29.179688 8.71875 C 29.058594 8.820312 28.964844 8.933594 28.871094 9.058594 C 28.851562 9.085938 28.832031 9.109375 28.8125 9.136719 C 28.773438 9.1875 28.734375 9.238281 28.695312 9.289062 C 28.644531 9.351562 28.59375 9.417969 28.542969 9.480469 C 28.300781 9.796875 28.109375 10.128906 27.921875 10.480469 C 27.894531 10.480469 27.867188 10.480469 27.839844 10.480469 C 27.824219 10.527344 27.808594 10.574219 27.796875 10.625 C 27.742188 10.785156 27.679688 10.9375 27.609375 11.089844 C 27.503906 11.332031 27.414062 11.578125 27.328125 11.828125 C 27.316406 11.863281 27.304688 11.898438 27.292969 11.933594 C 27.21875 12.167969 27.164062 12.398438 27.121094 12.640625 C 27.082031 12.640625 27.039062 12.640625 27 12.640625 C 26.988281 12.589844 26.976562 12.539062 26.964844 12.484375 C 26.734375 11.457031 26.375 10.347656 25.695312 9.519531 C 25.640625 9.441406 25.640625 9.441406 25.570312 9.308594 C 25.476562 9.144531 25.355469 9.015625 25.226562 8.878906 C 25.179688 8.832031 25.136719 8.785156 25.089844 8.738281 C 25.070312 8.71875 25.046875 8.695312 25.023438 8.671875 C 24.960938 8.601562 24.898438 8.527344 24.835938 8.453125 C 24.734375 8.335938 24.628906 8.238281 24.503906 8.140625 C 24.375 8.035156 24.25 7.933594 24.128906 7.820312 C 23.882812 7.601562 23.574219 7.425781 23.28125 7.28125 C 23.28125 7.253906 23.28125 7.226562 23.28125 7.199219 C 23.253906 7.191406 23.226562 7.179688 23.199219 7.167969 C 23.058594 7.113281 22.925781 7.046875 22.789062 6.984375 C 22.734375 6.960938 22.683594 6.933594 22.628906 6.910156 C 22.601562 6.898438 22.578125 6.886719 22.550781 6.871094 C 22.40625 6.804688 22.265625 6.742188 22.121094 6.679688 C 22.066406 6.65625 22.066406 6.65625 22.011719 6.632812 C 21.640625 6.480469 21.261719 6.390625 20.875 6.300781 C 20.800781 6.28125 20.800781 6.28125 20.71875 6.238281 C 20.71875 6.199219 20.71875 6.160156 20.71875 6.121094 C 20.792969 6.105469 20.792969 6.105469 20.867188 6.089844 C 22.121094 5.816406 23.296875 5.300781 24.320312 4.519531 C 24.359375 4.492188 24.398438 4.460938 24.4375 4.429688 C 25.003906 3.988281 25.46875 3.449219 25.882812 2.867188 C 25.929688 2.800781 25.980469 2.734375 26.027344 2.671875 C 26.308594 2.304688 26.535156 1.839844 26.679688 1.398438 C 26.707031 1.398438 26.734375 1.398438 26.761719 1.398438 C 26.765625 1.375 26.773438 1.351562 26.777344 1.328125 C 26.859375 1.03125 26.945312 0.734375 27.03125 0.441406 C 27.074219 0.292969 27.117188 0.148438 27.160156 0 Z M 27.160156 0 "/>
<path style=" stroke:none;fill-rule:nonzero;fill:rgb(23.529412%,71.372551%,77.64706%);fill-opacity:1;" d="M 34.800781 7.398438 C 34.839844 7.398438 34.878906 7.398438 34.921875 7.398438 C 34.9375 7.46875 34.9375 7.46875 34.953125 7.535156 C 35.140625 8.277344 35.46875 8.960938 36 9.519531 C 36.03125 9.554688 36.0625 9.585938 36.09375 9.621094 C 36.636719 10.117188 37.332031 10.425781 38.039062 10.601562 C 38.039062 10.640625 38.039062 10.679688 38.039062 10.71875 C 37.96875 10.734375 37.96875 10.734375 37.894531 10.753906 C 36.96875 10.972656 36.191406 11.402344 35.601562 12.160156 C 35.558594 12.210938 35.558594 12.210938 35.515625 12.265625 C 35.21875 12.644531 35.027344 13.09375 34.902344 13.558594 C 34.878906 13.644531 34.84375 13.71875 34.800781 13.800781 C 34.761719 13.800781 34.722656 13.800781 34.679688 13.800781 C 34.671875 13.761719 34.664062 13.71875 34.652344 13.679688 C 34.476562 12.914062 34.152344 12.246094 33.601562 11.679688 C 33.570312 11.648438 33.539062 11.613281 33.507812 11.582031 C 33.027344 11.128906 32.351562 10.8125 31.710938 10.675781 C 31.675781 10.664062 31.636719 10.652344 31.601562 10.640625 C 31.585938 10.601562 31.574219 10.5625 31.558594 10.519531 C 31.582031 10.515625 31.605469 10.507812 31.625 10.503906 C 32.742188 10.214844 33.699219 9.683594 34.320312 8.679688 C 34.414062 8.496094 34.496094 8.304688 34.570312 8.113281 C 34.597656 8.046875 34.625 7.984375 34.652344 7.917969 C 34.722656 7.746094 34.78125 7.589844 34.800781 7.398438 Z M 34.800781 7.398438 "/>
<path style=" stroke:none;fill-rule:nonzero;fill:rgb(23.529412%,71.372551%,77.64706%);fill-opacity:1;" d="M 28.761719 36.558594 C 28.761719 36.585938 28.761719 36.613281 28.761719 36.640625 C 28.804688 36.65625 28.804688 36.65625 28.847656 36.671875 C 29.273438 36.855469 29.542969 37.203125 29.71875 37.617188 C 29.824219 37.976562 29.851562 38.332031 29.851562 38.703125 C 29.851562 38.746094 29.847656 38.789062 29.847656 38.832031 C 29.84375 39.15625 29.832031 39.476562 29.808594 39.796875 C 29.804688 39.859375 29.804688 39.859375 29.800781 39.925781 C 29.777344 40.273438 29.699219 40.628906 29.441406 40.878906 C 28.859375 41.359375 28.191406 41.300781 27.480469 41.28125 C 27.441406 41.105469 27.441406 40.945312 27.457031 40.765625 C 27.460938 40.738281 27.460938 40.710938 27.464844 40.683594 C 27.46875 40.617188 27.472656 40.546875 27.480469 40.480469 C 27.503906 40.480469 27.527344 40.480469 27.550781 40.480469 C 27.660156 40.476562 27.769531 40.472656 27.878906 40.46875 C 27.914062 40.46875 27.953125 40.46875 27.988281 40.46875 C 28.246094 40.460938 28.460938 40.417969 28.679688 40.28125 C 28.75 40.203125 28.792969 40.132812 28.839844 40.039062 C 28.828125 40.027344 28.8125 40.011719 28.800781 40 C 28.761719 40.019531 28.761719 40.019531 28.722656 40.039062 C 28.257812 40.285156 27.765625 40.371094 27.242188 40.234375 C 26.949219 40.117188 26.707031 39.894531 26.480469 39.679688 C 26.453125 39.65625 26.425781 39.632812 26.398438 39.609375 C 26.085938 39.257812 25.976562 38.683594 25.992188 38.226562 C 26.039062 37.710938 26.242188 37.226562 26.648438 36.886719 C 27.261719 36.457031 28.039062 36.242188 28.761719 36.558594 Z M 27.183594 37.578125 C 26.957031 37.875 26.898438 38.164062 26.925781 38.535156 C 26.976562 38.828125 27.128906 39.085938 27.332031 39.296875 C 27.632812 39.472656 27.898438 39.511719 28.238281 39.441406 C 28.507812 39.359375 28.6875 39.1875 28.839844 38.960938 C 28.992188 38.671875 29.015625 38.324219 28.929688 38.007812 C 28.800781 37.667969 28.644531 37.449219 28.320312 37.28125 C 27.902344 37.140625 27.476562 37.253906 27.183594 37.578125 Z M 27.183594 37.578125 "/>
<path style=" stroke:none;fill-rule:nonzero;fill:rgb(23.529412%,71.372551%,77.64706%);fill-opacity:1;" d="M 38.453125 36.917969 C 38.851562 37.222656 39.113281 37.671875 39.1875 38.164062 C 39.207031 38.363281 39.214844 38.5625 39.199219 38.761719 C 39.160156 38.800781 39.160156 38.800781 39.046875 38.804688 C 38.972656 38.804688 38.972656 38.804688 38.894531 38.804688 C 38.867188 38.804688 38.839844 38.804688 38.8125 38.804688 C 38.71875 38.804688 38.625 38.804688 38.535156 38.804688 C 38.472656 38.804688 38.40625 38.804688 38.34375 38.804688 C 38.175781 38.804688 38.007812 38.804688 37.839844 38.804688 C 37.667969 38.800781 37.5 38.800781 37.328125 38.800781 C 36.992188 38.800781 36.65625 38.800781 36.320312 38.800781 C 36.34375 38.859375 36.371094 38.914062 36.394531 38.972656 C 36.410156 39.003906 36.421875 39.039062 36.4375 39.070312 C 36.554688 39.320312 36.714844 39.421875 36.960938 39.519531 C 37.195312 39.59375 37.472656 39.597656 37.699219 39.5 C 37.734375 39.480469 37.765625 39.460938 37.800781 39.441406 C 37.828125 39.441406 37.851562 39.441406 37.878906 39.441406 C 37.890625 39.417969 37.902344 39.394531 37.914062 39.371094 C 37.992188 39.214844 38.066406 39.074219 38.199219 38.960938 C 38.355469 38.921875 38.496094 38.929688 38.65625 38.941406 C 38.695312 38.941406 38.738281 38.941406 38.777344 38.945312 C 38.878906 38.949219 38.980469 38.953125 39.078125 38.960938 C 39.140625 39.167969 39.058594 39.285156 38.960938 39.46875 C 38.683594 39.910156 38.273438 40.21875 37.777344 40.371094 C 37.265625 40.480469 36.738281 40.414062 36.273438 40.15625 C 36.050781 40.003906 35.855469 39.800781 35.679688 39.601562 C 35.679688 39.574219 35.679688 39.546875 35.679688 39.519531 C 35.652344 39.519531 35.628906 39.519531 35.601562 39.519531 C 35.3125 38.875 35.234375 38.386719 35.488281 37.714844 C 35.6875 37.234375 36.042969 36.910156 36.507812 36.691406 C 37.199219 36.425781 37.832031 36.53125 38.453125 36.917969 Z M 36.542969 37.675781 C 36.457031 37.785156 36.457031 37.785156 36.359375 38.039062 C 36.96875 38.039062 37.574219 38.039062 38.199219 38.039062 C 38.113281 37.78125 38.070312 37.726562 37.878906 37.558594 C 37.855469 37.558594 37.828125 37.558594 37.800781 37.558594 C 37.800781 37.535156 37.800781 37.507812 37.800781 37.480469 C 37.351562 37.242188 36.894531 37.324219 36.542969 37.675781 Z M 36.542969 37.675781 "/>
<path style=" stroke:none;fill-rule:nonzero;fill:rgb(23.529412%,71.372551%,77.64706%);fill-opacity:1;" d="M 9.921875 36.160156 C 9.953125 36.167969 9.988281 36.171875 10.023438 36.179688 C 10.542969 36.289062 10.976562 36.519531 11.28125 36.960938 C 11.574219 37.449219 11.601562 37.800781 11.601562 38.398438 C 10.648438 38.398438 9.699219 38.398438 8.71875 38.398438 C 8.953125 38.867188 8.953125 38.867188 9.371094 39.113281 C 9.625 39.1875 9.855469 39.1875 10.109375 39.121094 C 10.265625 39.023438 10.351562 38.914062 10.457031 38.765625 C 10.515625 38.6875 10.5625 38.621094 10.640625 38.558594 C 10.730469 38.546875 10.730469 38.546875 10.835938 38.546875 C 10.890625 38.550781 10.890625 38.550781 10.949219 38.550781 C 10.988281 38.550781 11.027344 38.550781 11.066406 38.550781 C 11.105469 38.554688 11.148438 38.554688 11.1875 38.554688 C 11.285156 38.554688 11.382812 38.558594 11.480469 38.558594 C 11.527344 38.773438 11.492188 38.863281 11.386719 39.050781 C 11.101562 39.503906 10.6875 39.820312 10.175781 39.972656 C 9.660156 40.074219 9.136719 40.015625 8.671875 39.753906 C 8.25 39.464844 7.910156 39.050781 7.777344 38.550781 C 7.671875 37.929688 7.820312 37.355469 8.175781 36.839844 C 8.507812 36.414062 9.007812 36.203125 9.53125 36.128906 C 9.671875 36.117188 9.78125 36.128906 9.921875 36.160156 Z M 8.886719 37.367188 C 8.828125 37.457031 8.828125 37.457031 8.761719 37.640625 C 9.378906 37.640625 10 37.640625 10.640625 37.640625 C 10.507812 37.351562 10.507812 37.351562 10.300781 37.164062 C 10.257812 37.132812 10.257812 37.132812 10.210938 37.097656 C 9.746094 36.808594 9.222656 36.953125 8.886719 37.367188 Z M 8.886719 37.367188 "/>
<path style=" stroke:none;fill-rule:nonzero;fill:rgb(23.529412%,71.372551%,77.64706%);fill-opacity:1;" d="M 54.519531 37.121094 C 54.554688 37.144531 54.59375 37.164062 54.628906 37.191406 C 55.03125 37.472656 55.242188 37.894531 55.359375 38.359375 C 55.359375 38.585938 55.359375 38.808594 55.359375 39.039062 C 54.410156 39.039062 53.460938 39.039062 52.480469 39.039062 C 52.703125 39.507812 52.703125 39.507812 53.121094 39.761719 C 53.40625 39.824219 53.652344 39.804688 53.921875 39.679688 C 54.101562 39.5625 54.214844 39.429688 54.320312 39.238281 C 54.417969 39.191406 54.480469 39.195312 54.589844 39.195312 C 54.628906 39.195312 54.667969 39.195312 54.707031 39.195312 C 54.746094 39.195312 54.785156 39.195312 54.824219 39.199219 C 54.882812 39.199219 54.882812 39.199219 54.945312 39.199219 C 55.042969 39.199219 55.140625 39.199219 55.238281 39.199219 C 55.296875 39.367188 55.238281 39.4375 55.167969 39.589844 C 55.058594 39.796875 54.933594 39.960938 54.761719 40.121094 C 54.742188 40.140625 54.722656 40.160156 54.699219 40.179688 C 54.304688 40.546875 53.804688 40.660156 53.277344 40.652344 C 52.820312 40.617188 52.492188 40.476562 52.160156 40.160156 C 52.105469 40.109375 52.105469 40.109375 52.050781 40.058594 C 51.621094 39.582031 51.484375 39.082031 51.511719 38.445312 C 51.542969 38.132812 51.648438 37.78125 51.878906 37.558594 C 51.898438 37.535156 51.917969 37.511719 51.9375 37.488281 C 52.585938 36.675781 53.679688 36.574219 54.519531 37.121094 Z M 52.679688 37.921875 C 52.617188 38.023438 52.566406 38.128906 52.519531 38.238281 C 52.710938 38.289062 52.902344 38.285156 53.097656 38.285156 C 53.132812 38.285156 53.171875 38.285156 53.207031 38.285156 C 53.324219 38.285156 53.4375 38.28125 53.550781 38.28125 C 53.628906 38.28125 53.707031 38.28125 53.785156 38.28125 C 53.976562 38.28125 54.167969 38.28125 54.359375 38.28125 C 54.277344 38.027344 54.183594 37.855469 53.960938 37.707031 C 53.515625 37.480469 53.023438 37.570312 52.679688 37.921875 Z M 52.679688 37.921875 "/>
<path style=" stroke:none;fill-rule:nonzero;fill:rgb(23.529412%,71.372551%,77.64706%);fill-opacity:1;" d="M 14.902344 36.46875 C 15.007812 36.550781 15.105469 36.632812 15.199219 36.71875 C 15.230469 36.746094 15.257812 36.769531 15.289062 36.796875 C 15.578125 37.058594 15.773438 37.449219 15.808594 37.84375 C 15.808594 37.941406 15.808594 38.035156 15.808594 38.132812 C 15.808594 38.167969 15.808594 38.207031 15.808594 38.242188 C 15.800781 38.828125 15.777344 39.414062 15.761719 40 C 15.46875 40 15.179688 40 14.878906 40 C 14.867188 39.921875 14.855469 39.839844 14.839844 39.761719 C 14.808594 39.777344 14.777344 39.792969 14.746094 39.808594 C 14.292969 40.042969 13.847656 40.1875 13.335938 40.039062 C 13.113281 39.949219 12.914062 39.816406 12.71875 39.679688 C 12.695312 39.664062 12.667969 39.644531 12.640625 39.628906 C 12.308594 39.382812 12.097656 38.917969 12.015625 38.523438 C 11.9375 37.9375 12.03125 37.421875 12.390625 36.949219 C 12.980469 36.253906 14.105469 35.925781 14.902344 36.46875 Z M 13.160156 37.398438 C 12.957031 37.667969 12.878906 37.945312 12.921875 38.28125 C 12.988281 38.613281 13.085938 38.90625 13.359375 39.121094 C 13.644531 39.28125 13.898438 39.324219 14.21875 39.238281 C 14.421875 39.164062 14.578125 39.042969 14.71875 38.878906 C 14.78125 38.75 14.78125 38.75 14.800781 38.640625 C 14.828125 38.640625 14.851562 38.640625 14.878906 38.640625 C 15.019531 38.164062 14.957031 37.824219 14.730469 37.386719 C 14.550781 37.175781 14.332031 37.058594 14.0625 37.03125 C 13.6875 37.019531 13.40625 37.105469 13.160156 37.398438 Z M 13.160156 37.398438 "/>
<path style=" stroke:none;fill-rule:nonzero;fill:rgb(23.529412%,71.372551%,77.64706%);fill-opacity:1;" d="M 4.777344 36.292969 C 4.851562 36.339844 4.925781 36.390625 5 36.441406 C 5.03125 36.460938 5.066406 36.484375 5.101562 36.507812 C 5.425781 36.753906 5.699219 37.191406 5.753906 37.597656 C 5.761719 37.675781 5.761719 37.757812 5.761719 37.839844 C 5.449219 37.84375 5.148438 37.84375 4.839844 37.800781 C 4.832031 37.773438 4.824219 37.746094 4.816406 37.714844 C 4.722656 37.410156 4.582031 37.191406 4.320312 37 C 4.035156 36.882812 3.734375 36.871094 3.449219 36.984375 C 3.171875 37.125 3.019531 37.347656 2.921875 37.640625 C 2.800781 38.042969 2.867188 38.34375 3.0625 38.710938 C 3.183594 38.894531 3.34375 38.988281 3.550781 39.054688 C 3.835938 39.113281 4.117188 39.074219 4.367188 38.929688 C 4.617188 38.753906 4.691406 38.574219 4.800781 38.28125 C 5.105469 38.28125 5.40625 38.28125 5.71875 38.28125 C 5.671875 38.714844 5.53125 39.101562 5.199219 39.398438 C 4.683594 39.808594 4.179688 39.988281 3.519531 39.921875 C 3.148438 39.839844 2.824219 39.722656 2.558594 39.441406 C 2.539062 39.417969 2.515625 39.398438 2.492188 39.378906 C 2.109375 39.015625 1.898438 38.597656 1.875 38.0625 C 1.902344 37.484375 2.105469 36.949219 2.527344 36.546875 C 3.160156 36.023438 4.058594 35.871094 4.777344 36.292969 Z M 4.777344 36.292969 "/>
<path style=" stroke:none;fill-rule:nonzero;fill:rgb(23.529412%,71.372551%,77.64706%);fill-opacity:1;" d="M 50.398438 37.078125 C 50.5 37.179688 50.589844 37.289062 50.679688 37.398438 C 50.703125 37.429688 50.730469 37.457031 50.753906 37.488281 C 51.015625 37.800781 51.109375 38.074219 51.160156 38.480469 C 50.855469 38.480469 50.554688 38.480469 50.238281 38.480469 C 50.210938 38.40625 50.183594 38.332031 50.152344 38.253906 C 50.03125 37.972656 49.941406 37.796875 49.648438 37.667969 C 49.347656 37.558594 49.023438 37.507812 48.71875 37.640625 C 48.699219 37.699219 48.699219 37.699219 48.679688 37.761719 C 48.648438 37.78125 48.617188 37.804688 48.585938 37.828125 C 48.332031 38.046875 48.257812 38.386719 48.226562 38.710938 C 48.238281 39.042969 48.355469 39.296875 48.59375 39.523438 C 48.839844 39.726562 49.039062 39.789062 49.359375 39.761719 C 49.613281 39.699219 49.828125 39.625 49.972656 39.398438 C 50.0625 39.242188 50.136719 39.085938 50.199219 38.921875 C 50.507812 38.914062 50.8125 38.921875 51.121094 38.960938 C 51.070312 39.410156 50.863281 39.824219 50.527344 40.132812 C 50.066406 40.496094 49.546875 40.648438 48.960938 40.609375 C 48.460938 40.546875 47.980469 40.234375 47.675781 39.84375 C 47.300781 39.332031 47.226562 38.859375 47.320312 38.238281 C 47.386719 37.925781 47.503906 37.679688 47.71875 37.441406 C 47.742188 37.414062 47.769531 37.386719 47.792969 37.359375 C 48.464844 36.640625 49.585938 36.503906 50.398438 37.078125 Z M 50.398438 37.078125 "/>
<path style=" stroke:none;fill-rule:nonzero;fill:rgb(23.529412%,71.372551%,77.64706%);fill-opacity:1;" d="M 19.234375 36.570312 C 19.605469 36.863281 19.773438 37.222656 19.839844 37.679688 C 19.851562 37.835938 19.847656 37.988281 19.847656 38.140625 C 19.847656 38.1875 19.847656 38.230469 19.847656 38.273438 C 19.84375 38.664062 19.832031 39.054688 19.824219 39.441406 C 19.820312 39.472656 19.820312 39.5 19.820312 39.53125 C 19.816406 39.617188 19.816406 39.699219 19.8125 39.785156 C 19.8125 39.832031 19.808594 39.878906 19.808594 39.929688 C 19.800781 40.039062 19.800781 40.039062 19.761719 40.078125 C 19.699219 40.082031 19.636719 40.085938 19.574219 40.082031 C 19.535156 40.082031 19.496094 40.082031 19.457031 40.082031 C 19.417969 40.082031 19.378906 40.082031 19.335938 40.082031 C 19.296875 40.082031 19.257812 40.082031 19.214844 40.082031 C 19.117188 40.082031 19.019531 40.082031 18.921875 40.078125 C 18.882812 39.863281 18.875 39.652344 18.875 39.429688 C 18.875 39.394531 18.875 39.359375 18.875 39.320312 C 18.875 39.105469 18.882812 38.894531 18.890625 38.679688 C 18.894531 38.632812 18.894531 38.582031 18.898438 38.535156 C 18.902344 38.441406 18.90625 38.347656 18.914062 38.257812 C 18.929688 37.929688 18.9375 37.597656 18.734375 37.324219 C 18.574219 37.160156 18.410156 37.085938 18.179688 37.078125 C 17.949219 37.089844 17.789062 37.140625 17.601562 37.28125 C 17.527344 37.382812 17.527344 37.382812 17.480469 37.480469 C 17.453125 37.492188 17.425781 37.507812 17.398438 37.519531 C 17.398438 37.550781 17.398438 37.582031 17.398438 37.613281 C 17.394531 37.90625 17.390625 38.195312 17.386719 38.488281 C 17.382812 38.636719 17.382812 38.789062 17.378906 38.9375 C 17.378906 39.082031 17.375 39.226562 17.375 39.371094 C 17.375 39.425781 17.371094 39.480469 17.371094 39.535156 C 17.371094 39.613281 17.371094 39.691406 17.367188 39.769531 C 17.367188 39.8125 17.367188 39.855469 17.367188 39.902344 C 17.359375 40 17.359375 40 17.320312 40.039062 C 17.257812 40.042969 17.195312 40.046875 17.132812 40.046875 C 17.078125 40.046875 17.078125 40.046875 17.019531 40.046875 C 16.960938 40.046875 16.960938 40.046875 16.898438 40.046875 C 16.859375 40.046875 16.820312 40.046875 16.78125 40.046875 C 16.742188 40.046875 16.703125 40.046875 16.667969 40.046875 C 16.632812 40.046875 16.597656 40.046875 16.5625 40.046875 C 16.480469 40.039062 16.480469 40.039062 16.441406 40 C 16.4375 39.933594 16.433594 39.863281 16.433594 39.796875 C 16.433594 39.753906 16.433594 39.710938 16.433594 39.667969 C 16.433594 39.617188 16.433594 39.570312 16.433594 39.523438 C 16.433594 39.472656 16.429688 39.425781 16.429688 39.375 C 16.429688 39.273438 16.429688 39.167969 16.429688 39.066406 C 16.429688 38.910156 16.429688 38.753906 16.425781 38.597656 C 16.425781 38.496094 16.425781 38.394531 16.425781 38.296875 C 16.425781 38.25 16.425781 38.203125 16.425781 38.15625 C 16.425781 37.609375 16.554688 37.070312 16.933594 36.660156 C 17.558594 36.085938 18.550781 36.121094 19.234375 36.570312 Z M 19.234375 36.570312 "/>
<path style=" stroke:none;fill-rule:nonzero;fill:rgb(23.529412%,71.372551%,77.64706%);fill-opacity:1;" d="M 34.320312 36.640625 C 34.605469 36.847656 34.839844 37.070312 34.898438 37.429688 C 34.910156 37.527344 34.914062 37.621094 34.921875 37.71875 C 34.289062 37.726562 34.289062 37.726562 34 37.679688 C 33.992188 37.636719 33.984375 37.589844 33.976562 37.546875 C 33.9375 37.394531 33.9375 37.394531 33.8125 37.34375 C 33.554688 37.296875 33.386719 37.304688 33.160156 37.441406 C 33.105469 37.484375 33.105469 37.484375 33.113281 37.609375 C 33.164062 37.773438 33.175781 37.789062 33.316406 37.863281 C 33.511719 37.949219 33.710938 38.003906 33.917969 38.058594 C 34.324219 38.164062 34.671875 38.285156 34.917969 38.648438 C 35.054688 38.894531 35.046875 39.273438 34.972656 39.542969 C 34.933594 39.621094 34.890625 39.6875 34.839844 39.761719 C 34.796875 39.820312 34.796875 39.820312 34.753906 39.886719 C 34.484375 40.1875 34.082031 40.34375 33.6875 40.371094 C 33.210938 40.386719 32.882812 40.335938 32.523438 40.011719 C 32.289062 39.789062 32.160156 39.597656 32.078125 39.28125 C 32.078125 39.148438 32.078125 39.015625 32.078125 38.878906 C 32.371094 38.878906 32.660156 38.878906 32.960938 38.878906 C 32.988281 39 33.011719 39.117188 33.039062 39.238281 C 33.097656 39.378906 33.128906 39.425781 33.265625 39.492188 C 33.554688 39.550781 33.742188 39.53125 34 39.398438 C 34.054688 39.355469 34.054688 39.355469 34.050781 39.226562 C 34.050781 39.082031 34.050781 39.082031 33.984375 38.992188 C 33.738281 38.820312 33.464844 38.742188 33.179688 38.664062 C 32.542969 38.484375 32.542969 38.484375 32.359375 38.199219 C 32.359375 38.171875 32.359375 38.148438 32.359375 38.121094 C 32.332031 38.121094 32.308594 38.121094 32.28125 38.121094 C 32.144531 37.808594 32.128906 37.539062 32.234375 37.214844 C 32.367188 36.90625 32.570312 36.734375 32.867188 36.585938 C 33.320312 36.410156 33.890625 36.390625 34.320312 36.640625 Z M 34.320312 36.640625 "/>
<path style=" stroke:none;fill-rule:nonzero;fill:rgb(23.529412%,71.372551%,77.64706%);fill-opacity:1;" d="M 58.113281 37.085938 C 58.378906 37.292969 58.5 37.597656 58.554688 37.921875 C 58.554688 37.949219 58.558594 37.972656 58.558594 38 C 58.519531 38.039062 58.519531 38.039062 58.429688 38.042969 C 58.394531 38.042969 58.355469 38.042969 58.316406 38.042969 C 58.253906 38.042969 58.253906 38.042969 58.1875 38.042969 C 58.144531 38.042969 58.101562 38.042969 58.058594 38.042969 C 57.992188 38.042969 57.992188 38.042969 57.925781 38.042969 C 57.816406 38.042969 57.707031 38.039062 57.601562 38.039062 C 57.582031 37.996094 57.566406 37.949219 57.546875 37.90625 C 57.492188 37.753906 57.492188 37.753906 57.371094 37.679688 C 57.171875 37.621094 57.023438 37.648438 56.824219 37.710938 C 56.75 37.757812 56.75 37.757812 56.726562 37.855469 C 56.71875 37.976562 56.738281 38.019531 56.800781 38.121094 C 56.988281 38.25 57.222656 38.296875 57.445312 38.351562 C 57.671875 38.40625 57.875 38.484375 58.085938 38.59375 C 58.109375 38.609375 58.132812 38.621094 58.160156 38.632812 C 58.367188 38.75 58.503906 38.890625 58.613281 39.105469 C 58.664062 39.363281 58.695312 39.683594 58.570312 39.925781 C 58.347656 40.257812 58.140625 40.5 57.761719 40.640625 C 57.714844 40.65625 57.664062 40.675781 57.617188 40.691406 C 57.140625 40.789062 56.648438 40.695312 56.238281 40.441406 C 56.199219 40.417969 56.199219 40.417969 56.160156 40.390625 C 55.925781 40.21875 55.804688 39.953125 55.71875 39.679688 C 55.707031 39.535156 55.695312 39.390625 55.679688 39.238281 C 55.984375 39.238281 56.289062 39.238281 56.601562 39.238281 C 56.625 39.359375 56.652344 39.476562 56.679688 39.601562 C 56.792969 39.765625 56.792969 39.765625 56.953125 39.875 C 56.980469 39.875 57.011719 39.878906 57.039062 39.878906 C 57.089844 39.882812 57.140625 39.886719 57.191406 39.890625 C 57.367188 39.886719 57.488281 39.839844 57.640625 39.761719 C 57.699219 39.640625 57.683594 39.53125 57.679688 39.398438 C 57.667969 39.359375 57.652344 39.320312 57.640625 39.28125 C 57.46875 39.210938 57.292969 39.164062 57.113281 39.117188 C 56.628906 38.996094 56.203125 38.835938 55.878906 38.441406 C 55.753906 38.167969 55.785156 37.832031 55.867188 37.546875 C 56.011719 37.222656 56.273438 36.996094 56.597656 36.867188 C 56.625 36.859375 56.652344 36.847656 56.679688 36.839844 C 56.703125 36.832031 56.726562 36.824219 56.75 36.816406 C 57.207031 36.734375 57.71875 36.84375 58.113281 37.085938 Z M 58.113281 37.085938 "/>
<path style=" stroke:none;fill-rule:nonzero;fill:rgb(23.529412%,71.372551%,77.64706%);fill-opacity:1;" d="M 25.039062 36.761719 C 25.332031 37.039062 25.507812 37.398438 25.527344 37.804688 C 25.527344 37.953125 25.523438 38.105469 25.519531 38.253906 C 25.519531 38.308594 25.515625 38.363281 25.515625 38.417969 C 25.511719 38.5625 25.511719 38.707031 25.507812 38.851562 C 25.503906 39 25.5 39.148438 25.5 39.292969 C 25.492188 39.582031 25.488281 39.871094 25.480469 40.160156 C 25.191406 40.160156 24.898438 40.160156 24.601562 40.160156 C 24.601562 40.058594 24.601562 40.058594 24.601562 39.957031 C 24.605469 39.734375 24.605469 39.511719 24.605469 39.289062 C 24.605469 39.152344 24.609375 39.019531 24.609375 38.882812 C 24.609375 38.730469 24.609375 38.574219 24.613281 38.417969 C 24.613281 38.371094 24.613281 38.320312 24.613281 38.273438 C 24.613281 37.808594 24.613281 37.808594 24.414062 37.402344 C 24.246094 37.242188 24.066406 37.160156 23.832031 37.160156 C 23.589844 37.179688 23.402344 37.234375 23.230469 37.414062 C 23.078125 37.644531 23.066406 37.867188 23.066406 38.136719 C 23.0625 38.191406 23.0625 38.191406 23.0625 38.246094 C 23.0625 38.363281 23.058594 38.480469 23.058594 38.59375 C 23.054688 38.746094 23.050781 38.898438 23.050781 39.050781 C 23.050781 39.085938 23.046875 39.121094 23.046875 39.160156 C 23.042969 39.480469 23.023438 39.800781 23 40.121094 C 22.710938 40.121094 22.417969 40.121094 22.121094 40.121094 C 22.121094 39.792969 22.125 39.464844 22.128906 39.140625 C 22.128906 38.988281 22.128906 38.835938 22.128906 38.683594 C 22.132812 38.539062 22.132812 38.390625 22.132812 38.242188 C 22.136719 38.1875 22.136719 38.132812 22.136719 38.078125 C 22.136719 37.511719 22.28125 37.113281 22.660156 36.695312 C 22.816406 36.546875 23.003906 36.472656 23.199219 36.398438 C 23.226562 36.390625 23.253906 36.378906 23.277344 36.367188 C 23.832031 36.175781 24.613281 36.398438 25.039062 36.761719 Z M 25.039062 36.761719 "/>
<path style=" stroke:none;fill-rule:nonzero;fill:rgb(23.529412%,71.372551%,77.64706%);fill-opacity:1;" d="M 41.71875 36.679688 C 41.996094 36.679688 42.273438 36.679688 42.558594 36.679688 C 42.679688 36.972656 42.792969 37.269531 42.898438 37.566406 C 42.949219 37.699219 42.996094 37.832031 43.042969 37.964844 C 43.058594 38.003906 43.058594 38.003906 43.074219 38.042969 C 43.21875 38.441406 43.371094 38.839844 43.519531 39.238281 C 43.621094 39.140625 43.648438 39.046875 43.695312 38.914062 C 43.707031 38.890625 43.714844 38.863281 43.726562 38.839844 C 43.753906 38.761719 43.785156 38.679688 43.8125 38.601562 C 43.929688 38.285156 44.050781 37.96875 44.195312 37.664062 C 44.269531 37.496094 44.328125 37.328125 44.390625 37.15625 C 44.414062 37.089844 44.4375 37.023438 44.460938 36.957031 C 44.472656 36.929688 44.480469 36.902344 44.492188 36.871094 C 44.519531 36.800781 44.519531 36.800781 44.558594 36.71875 C 44.851562 36.71875 45.140625 36.71875 45.441406 36.71875 C 45.394531 37.035156 45.394531 37.035156 45.324219 37.203125 C 45.304688 37.253906 45.304688 37.253906 45.28125 37.308594 C 45.269531 37.34375 45.253906 37.378906 45.238281 37.417969 C 45.222656 37.453125 45.207031 37.492188 45.191406 37.53125 C 45.15625 37.621094 45.117188 37.710938 45.078125 37.800781 C 45.054688 37.800781 45.027344 37.800781 45 37.800781 C 44.992188 37.847656 44.980469 37.898438 44.972656 37.949219 C 44.917969 38.195312 44.824219 38.425781 44.726562 38.65625 C 44.710938 38.699219 44.695312 38.742188 44.675781 38.785156 C 44.582031 39.019531 44.480469 39.242188 44.367188 39.460938 C 44.269531 39.664062 44.191406 39.878906 44.109375 40.089844 C 44.089844 40.140625 44.089844 40.140625 44.070312 40.191406 C 44.058594 40.222656 44.046875 40.253906 44.035156 40.285156 C 44 40.359375 44 40.359375 43.921875 40.441406 C 43.832031 40.445312 43.832031 40.445312 43.726562 40.4375 C 43.671875 40.4375 43.671875 40.4375 43.613281 40.433594 C 43.574219 40.429688 43.535156 40.425781 43.496094 40.425781 C 43.433594 40.421875 43.433594 40.421875 43.375 40.417969 C 43.277344 40.414062 43.179688 40.40625 43.078125 40.398438 C 43.003906 40.207031 42.929688 40.011719 42.855469 39.820312 C 42.828125 39.753906 42.804688 39.6875 42.777344 39.625 C 42.625 39.238281 42.476562 38.851562 42.332031 38.464844 C 42.261719 38.269531 42.1875 38.074219 42.113281 37.878906 C 42.074219 37.777344 42.035156 37.675781 41.996094 37.574219 C 41.972656 37.511719 41.949219 37.449219 41.921875 37.386719 C 41.875 37.265625 41.839844 37.171875 41.839844 37.039062 C 41.8125 37.027344 41.789062 37.011719 41.761719 37 C 41.761719 36.945312 41.761719 36.894531 41.761719 36.839844 C 41.734375 36.828125 41.707031 36.8125 41.679688 36.800781 C 41.691406 36.761719 41.707031 36.722656 41.71875 36.679688 Z M 41.71875 36.679688 "/>
<path style=" stroke:none;fill-rule:nonzero;fill:rgb(23.529412%,71.372551%,77.64706%);fill-opacity:1;" d="M 6.359375 35.320312 C 6.652344 35.332031 6.941406 35.347656 7.238281 35.359375 C 7.242188 36.078125 7.234375 36.792969 7.226562 37.507812 C 7.222656 37.628906 7.222656 37.746094 7.21875 37.867188 C 7.210938 38.539062 7.199219 39.210938 7.160156 39.878906 C 7.058594 39.878906 6.953125 39.882812 6.851562 39.882812 C 6.769531 39.882812 6.691406 39.882812 6.609375 39.882812 C 6.578125 39.882812 6.542969 39.882812 6.507812 39.882812 C 6.472656 39.882812 6.4375 39.882812 6.402344 39.882812 C 6.320312 39.878906 6.320312 39.878906 6.28125 39.839844 C 6.277344 39.71875 6.277344 39.601562 6.277344 39.480469 C 6.277344 39.445312 6.277344 39.40625 6.277344 39.367188 C 6.28125 38.835938 6.289062 38.308594 6.292969 37.78125 C 6.296875 37.664062 6.296875 37.542969 6.300781 37.421875 C 6.308594 36.722656 6.324219 36.019531 6.359375 35.320312 Z M 6.359375 35.320312 "/>
<path style=" stroke:none;fill-rule:nonzero;fill:rgb(23.529412%,71.372551%,77.64706%);fill-opacity:1;" d="M 41.441406 36.601562 C 41.425781 36.863281 41.414062 37.128906 41.398438 37.398438 C 41.339844 37.417969 41.277344 37.433594 41.214844 37.449219 C 40.992188 37.519531 40.816406 37.582031 40.695312 37.792969 C 40.601562 38.019531 40.617188 38.269531 40.609375 38.511719 C 40.609375 38.566406 40.609375 38.621094 40.605469 38.671875 C 40.601562 38.8125 40.597656 38.953125 40.59375 39.089844 C 40.589844 39.234375 40.585938 39.378906 40.582031 39.519531 C 40.574219 39.800781 40.566406 40.082031 40.558594 40.359375 C 40.414062 40.359375 40.269531 40.363281 40.121094 40.363281 C 40.058594 40.363281 40.058594 40.363281 39.996094 40.363281 C 39.957031 40.363281 39.917969 40.363281 39.875 40.363281 C 39.820312 40.363281 39.820312 40.363281 39.765625 40.363281 C 39.679688 40.359375 39.679688 40.359375 39.640625 40.320312 C 39.636719 40.195312 39.632812 40.070312 39.636719 39.945312 C 39.636719 39.90625 39.636719 39.867188 39.636719 39.824219 C 39.636719 39.683594 39.636719 39.542969 39.640625 39.398438 C 39.640625 39.371094 39.640625 39.34375 39.640625 39.316406 C 39.644531 39.132812 39.648438 38.949219 39.652344 38.765625 C 39.652344 38.707031 39.652344 38.644531 39.652344 38.585938 C 39.664062 38.039062 39.679688 37.53125 40.078125 37.121094 C 40.105469 37.09375 40.128906 37.070312 40.152344 37.042969 C 40.515625 36.691406 40.949219 36.601562 41.441406 36.601562 Z M 41.441406 36.601562 "/>
<path style=" stroke:none;fill-rule:nonzero;fill:rgb(23.529412%,71.372551%,77.64706%);fill-opacity:1;" d="M 20.558594 36.359375 C 20.707031 36.367188 20.851562 36.371094 20.996094 36.378906 C 21.039062 36.378906 21.082031 36.378906 21.125 36.382812 C 21.164062 36.382812 21.203125 36.386719 21.242188 36.386719 C 21.296875 36.390625 21.296875 36.390625 21.355469 36.390625 C 21.441406 36.398438 21.441406 36.398438 21.480469 36.441406 C 21.484375 36.511719 21.484375 36.582031 21.484375 36.652344 C 21.484375 36.699219 21.484375 36.746094 21.484375 36.796875 C 21.484375 36.851562 21.484375 36.90625 21.484375 36.960938 C 21.484375 36.988281 21.484375 37.015625 21.484375 37.042969 C 21.484375 37.636719 21.472656 38.230469 21.464844 38.824219 C 21.464844 38.929688 21.460938 39.03125 21.460938 39.136719 C 21.457031 39.285156 21.457031 39.433594 21.453125 39.582031 C 21.453125 39.628906 21.453125 39.675781 21.449219 39.722656 C 21.449219 39.761719 21.449219 39.804688 21.449219 39.847656 C 21.449219 39.882812 21.445312 39.921875 21.445312 39.957031 C 21.441406 40.039062 21.441406 40.039062 21.398438 40.078125 C 21.335938 40.082031 21.269531 40.085938 21.203125 40.082031 C 21.164062 40.082031 21.125 40.082031 21.082031 40.082031 C 21.042969 40.082031 21 40.082031 20.957031 40.082031 C 20.914062 40.082031 20.875 40.082031 20.832031 40.082031 C 20.726562 40.082031 20.625 40.082031 20.519531 40.078125 C 20.515625 38.839844 20.519531 37.601562 20.558594 36.359375 Z M 20.558594 36.359375 "/>
<path style=" stroke:none;fill-rule:nonzero;fill:rgb(23.529412%,71.372551%,77.64706%);fill-opacity:1;" d="M 45.878906 36.761719 C 46.171875 36.761719 46.460938 36.761719 46.761719 36.761719 C 46.753906 37.203125 46.75 37.648438 46.746094 38.089844 C 46.746094 38.296875 46.742188 38.503906 46.738281 38.710938 C 46.738281 38.90625 46.734375 39.105469 46.734375 39.304688 C 46.734375 39.382812 46.730469 39.457031 46.730469 39.535156 C 46.730469 39.640625 46.730469 39.746094 46.726562 39.851562 C 46.726562 39.882812 46.726562 39.914062 46.726562 39.945312 C 46.726562 40.128906 46.710938 40.300781 46.679688 40.480469 C 46.539062 40.472656 46.402344 40.46875 46.261719 40.460938 C 46.222656 40.460938 46.183594 40.460938 46.140625 40.457031 C 46.105469 40.457031 46.066406 40.453125 46.027344 40.453125 C 45.992188 40.453125 45.957031 40.449219 45.921875 40.449219 C 45.839844 40.441406 45.839844 40.441406 45.800781 40.398438 C 45.796875 40.3125 45.796875 40.222656 45.796875 40.132812 C 45.800781 40.09375 45.800781 40.09375 45.800781 40.050781 C 45.800781 39.957031 45.800781 39.863281 45.804688 39.773438 C 45.804688 39.707031 45.804688 39.644531 45.804688 39.578125 C 45.808594 39.441406 45.808594 39.304688 45.8125 39.167969 C 45.816406 38.996094 45.816406 38.824219 45.820312 38.652344 C 45.820312 38.515625 45.824219 38.382812 45.824219 38.25 C 45.824219 38.1875 45.828125 38.121094 45.828125 38.058594 C 45.832031 37.625 45.851562 37.191406 45.878906 36.761719 Z M 45.878906 36.761719 "/>
</g>
</svg>
