<?xml version="1.0" encoding="UTF-8"?>
<svg xmlns="http://www.w3.org/2000/svg" xmlns:xlink="http://www.w3.org/1999/xlink" width="100px" height="80px" viewBox="0 0 100 80" version="1.1">
<g id="surface1">
<path style=" stroke:none;fill-rule:evenodd;fill:rgb(23.529412%,70.588237%,76.862746%);fill-opacity:1;" d="M 42.121094 4.234375 C 42.097656 4.269531 42.046875 4.46875 42.011719 4.671875 C 41.785156 5.886719 40.867188 8.007812 40.023438 9.25 C 38.117188 12.058594 35.382812 13.964844 31.917969 14.890625 C 31.488281 15.003906 31.132812 15.113281 31.132812 15.132812 C 31.132812 15.152344 31.488281 15.261719 31.917969 15.375 C 35.382812 16.300781 38.121094 18.207031 40.023438 21.015625 C 40.875 22.273438 41.753906 24.300781 42.003906 25.585938 C 42.046875 25.816406 42.105469 26.015625 42.132812 26.035156 C 42.160156 26.050781 42.203125 25.9375 42.226562 25.78125 C 42.367188 24.90625 42.921875 23.378906 43.507812 22.273438 C 44.617188 20.171875 46.171875 18.472656 48.167969 17.183594 C 49.277344 16.46875 51.125 15.679688 52.515625 15.324219 C 52.855469 15.238281 53.132812 15.144531 53.132812 15.117188 C 53.132812 15.089844 53.089844 15.066406 53.039062 15.066406 C 52.988281 15.066406 52.585938 14.964844 52.152344 14.839844 C 48.5625 13.804688 45.8125 11.78125 43.953125 8.796875 C 43.199219 7.585938 42.515625 5.894531 42.238281 4.535156 C 42.195312 4.332031 42.144531 4.195312 42.121094 4.234375 M 55.285156 17.292969 C 55.183594 17.777344 54.847656 18.601562 54.550781 19.097656 C 53.628906 20.636719 52.226562 21.691406 50.398438 22.222656 C 50.089844 22.3125 49.878906 22.402344 49.933594 22.421875 C 49.988281 22.4375 50.304688 22.535156 50.632812 22.632812 C 52.867188 23.304688 54.699219 25.160156 55.242188 27.300781 C 55.390625 27.882812 55.4375 27.945312 55.496094 27.621094 C 55.621094 26.972656 56.070312 25.953125 56.539062 25.261719 C 57.367188 24.039062 58.652344 23.117188 60.199219 22.628906 C 60.511719 22.53125 60.8125 22.4375 60.867188 22.417969 C 60.925781 22.394531 60.824219 22.339844 60.632812 22.289062 C 58.035156 21.566406 56.25 19.859375 55.582031 17.46875 C 55.5 17.175781 55.417969 16.933594 55.398438 16.933594 C 55.378906 16.933594 55.328125 17.09375 55.285156 17.292969 M 12.332031 29.839844 C 9.949219 30.035156 8.292969 30.457031 6.566406 31.296875 C 3.332031 32.875 1.144531 35.527344 0.15625 39.066406 L 0 39.632812 L 0 60.601562 L 6.398438 60.601562 L 6.398438 51.746094 C 6.398438 45.808594 6.425781 42.648438 6.472656 42.160156 C 6.832031 38.574219 9.078125 36.273438 12.546875 35.9375 C 13.890625 35.808594 15.222656 36.027344 16.390625 36.574219 C 18.511719 37.5625 19.75 39.410156 20.066406 42.066406 C 20.109375 42.421875 20.132812 45.96875 20.132812 51.613281 L 20.132812 60.601562 L 26.867188 60.601562 L 26.867188 51.207031 C 26.867188 40.8125 26.875 41.042969 26.4375 39.300781 C 25.664062 36.230469 23.863281 33.691406 21.265625 32.011719 C 19.667969 30.972656 17.605469 30.25 15.453125 29.964844 C 14.726562 29.867188 12.871094 29.792969 12.332031 29.839844 M 45.699219 30.042969 C 42.464844 30.378906 39.882812 31.367188 37.40625 33.21875 C 36.605469 33.816406 35.039062 35.367188 34.410156 36.191406 C 32.910156 38.148438 31.914062 40.394531 31.421875 42.921875 C 31.257812 43.761719 31.242188 43.972656 31.238281 45.601562 C 31.234375 47.5 31.273438 47.90625 31.605469 49.300781 C 32.308594 52.269531 33.648438 54.664062 35.828125 56.839844 C 38.246094 59.261719 41.203125 60.777344 44.519531 61.300781 C 50.570312 62.253906 56.554688 59.605469 60.03125 54.433594 C 61.085938 52.867188 62.003906 50.617188 62.367188 48.714844 L 62.453125 48.265625 L 55.40625 48.265625 L 55.234375 48.839844 C 54.023438 52.808594 50.746094 55.398438 46.933594 55.398438 C 44.660156 55.398438 42.570312 54.46875 40.886719 52.710938 C 39.765625 51.535156 38.917969 49.992188 38.507812 48.367188 C 38.121094 46.84375 38.101562 44.816406 38.460938 43.257812 C 39.070312 40.601562 40.824219 38.269531 43.136719 37.039062 C 44.359375 36.390625 45.484375 36.121094 46.964844 36.117188 C 48.457031 36.117188 49.449219 36.351562 50.734375 37.007812 C 53.070312 38.199219 54.871094 40.660156 55.402344 43.382812 L 55.484375 43.800781 L 59.007812 43.800781 C 60.949219 43.800781 62.53125 43.777344 62.53125 43.75 C 62.53125 43.558594 62.300781 42.320312 62.164062 41.785156 C 61.644531 39.742188 60.5 37.453125 59.203125 35.867188 C 56.6875 32.789062 53.15625 30.765625 49.265625 30.167969 C 48.59375 30.0625 46.269531 29.980469 45.699219 30.042969 M 80.167969 30.042969 C 76.273438 30.449219 73.09375 31.890625 70.46875 34.4375 C 69.25 35.625 68.449219 36.644531 67.679688 37.996094 C 65.777344 41.335938 65.183594 45.289062 66.007812 49.128906 C 66.480469 51.324219 67.683594 53.808594 69.167969 55.636719 C 69.820312 56.4375 71.148438 57.722656 71.953125 58.320312 C 75.511719 60.976562 79.941406 62.023438 84.242188 61.230469 C 89.105469 60.332031 93.300781 57.144531 95.46875 52.699219 C 96.15625 51.289062 96.695312 49.679688 96.839844 48.609375 L 96.882812 48.265625 L 93.375 48.265625 C 90.621094 48.265625 89.855469 48.285156 89.835938 48.351562 C 89.429688 49.714844 89.207031 50.25 88.679688 51.136719 C 87.03125 53.90625 84.171875 55.507812 81.101562 55.378906 C 79.8125 55.324219 78.832031 55.074219 77.746094 54.523438 C 76.925781 54.105469 76.355469 53.695312 75.640625 53.003906 C 73.671875 51.109375 72.667969 48.625 72.667969 45.671875 C 72.667969 42.878906 73.625 40.488281 75.492188 38.625 C 76.277344 37.84375 76.894531 37.386719 77.769531 36.949219 C 78.347656 36.65625 79.371094 36.320312 80.066406 36.191406 C 80.640625 36.085938 82.175781 36.089844 82.800781 36.195312 C 83.433594 36.304688 84.519531 36.65625 85.074219 36.933594 C 86.289062 37.542969 87.609375 38.699219 88.34375 39.800781 C 89.054688 40.867188 89.625 42.203125 89.867188 43.382812 L 89.953125 43.800781 L 93.476562 43.800781 C 95.414062 43.800781 97 43.773438 97 43.746094 C 97 43.570312 96.703125 42.082031 96.558594 41.539062 C 96.1875 40.136719 95.425781 38.4375 94.617188 37.199219 C 92.125 33.390625 88.195312 30.851562 83.734375 30.167969 C 83.0625 30.0625 80.734375 29.980469 80.167969 30.042969 M 7.199219 69.433594 L 7.199219 73.265625 L 8.667969 73.265625 L 8.667969 65.601562 L 7.199219 65.601562 L 7.199219 69.433594 M 2.566406 66.910156 C 2.171875 66.96875 1.628906 67.148438 1.335938 67.316406 C 0.957031 67.535156 0.441406 68.015625 0.191406 68.378906 L 0 68.65625 L 0 71.679688 L 0.273438 72.070312 C 0.96875 73.058594 2.261719 73.609375 3.414062 73.410156 C 4.132812 73.289062 4.757812 72.960938 5.253906 72.441406 C 5.683594 71.996094 6.039062 71.359375 6.113281 70.90625 L 6.152344 70.667969 L 4.675781 70.667969 L 4.515625 71.015625 C 4.292969 71.5 4.054688 71.761719 3.652344 71.960938 C 2.75 72.410156 1.632812 71.914062 1.285156 70.90625 C 1.117188 70.414062 1.140625 69.722656 1.339844 69.300781 C 1.644531 68.65625 2.304688 68.199219 2.933594 68.199219 C 3.203125 68.199219 3.699219 68.367188 3.9375 68.535156 C 4.191406 68.71875 4.511719 69.203125 4.605469 69.550781 L 4.671875 69.800781 L 6.203125 69.800781 L 6.160156 69.617188 C 5.820312 68.070312 4.679688 67.042969 3.167969 66.914062 C 2.945312 66.898438 2.675781 66.894531 2.566406 66.910156 M 12.566406 66.910156 C 11.097656 67.140625 9.960938 68.257812 9.726562 69.707031 C 9.386719 71.804688 11.351562 73.753906 13.457031 73.40625 C 14.664062 73.207031 15.621094 72.410156 16.066406 71.230469 L 16.128906 71.066406 L 14.566406 71.066406 L 14.398438 71.339844 C 13.851562 72.238281 12.585938 72.386719 11.8125 71.644531 C 11.601562 71.445312 11.265625 70.886719 11.265625 70.734375 C 11.265625 70.6875 12.078125 70.667969 13.726562 70.667969 L 16.183594 70.667969 L 16.230469 70.496094 C 16.253906 70.398438 16.253906 70.152344 16.230469 69.945312 C 16.078125 68.535156 15.257812 67.492188 13.980469 67.074219 C 13.546875 66.933594 12.90625 66.859375 12.566406 66.910156 M 19.667969 66.941406 C 19.207031 67.015625 18.460938 67.378906 18.058594 67.730469 C 16.875 68.753906 16.625 70.605469 17.492188 71.960938 C 17.777344 72.40625 18.351562 72.921875 18.804688 73.144531 C 19.75 73.601562 20.734375 73.539062 21.648438 72.957031 L 22 72.734375 L 22 73.265625 L 23.398438 73.265625 L 23.398438 71.449219 C 23.398438 70.128906 23.375 69.539062 23.308594 69.292969 C 22.984375 68.082031 21.941406 67.128906 20.734375 66.9375 C 20.242188 66.859375 20.175781 66.859375 19.667969 66.941406 M 26.601562 66.972656 C 25.839844 67.179688 25.25 67.671875 24.910156 68.390625 L 24.699219 68.832031 L 24.679688 71.050781 L 24.660156 73.265625 L 26.058594 73.265625 L 26.078125 71.25 C 26.097656 69.285156 26.105469 69.226562 26.257812 68.914062 C 26.476562 68.464844 26.824219 68.246094 27.367188 68.210938 C 27.597656 68.199219 27.894531 68.21875 28.023438 68.261719 C 28.320312 68.363281 28.703125 68.78125 28.796875 69.113281 C 28.835938 69.265625 28.867188 70.148438 28.867188 71.316406 L 28.867188 73.265625 L 30.332031 73.265625 L 30.332031 71.304688 C 30.332031 69.183594 30.296875 68.859375 29.996094 68.265625 C 29.445312 67.167969 27.96875 66.605469 26.601562 66.972656 M 36.398438 66.960938 C 35.453125 67.226562 34.804688 67.835938 34.53125 68.722656 C 34.414062 69.105469 34.398438 69.34375 34.398438 71.207031 L 34.398438 73.265625 L 35.867188 73.265625 L 35.867188 71.242188 C 35.867188 69.058594 35.882812 68.953125 36.226562 68.578125 C 36.464844 68.324219 36.792969 68.199219 37.226562 68.199219 C 37.839844 68.199219 38.230469 68.4375 38.472656 68.964844 C 38.585938 69.207031 38.597656 69.429688 38.597656 71.25 L 38.601562 73.265625 L 40.074219 73.265625 L 40.054688 71.082031 C 40.035156 68.976562 40.027344 68.886719 39.878906 68.515625 C 39.6875 68.039062 39.128906 67.421875 38.703125 67.207031 C 38.035156 66.875 37.078125 66.773438 36.398438 66.960938 M 43.933594 66.910156 C 42.0625 67.199219 40.8125 68.824219 41.0625 70.632812 C 41.183594 71.5 41.476562 72.074219 42.089844 72.652344 C 42.753906 73.28125 43.707031 73.570312 44.578125 73.40625 C 45.085938 73.3125 45.609375 73.078125 45.882812 72.816406 C 46.050781 72.65625 46.066406 72.652344 46.066406 72.773438 C 46.066406 72.992188 45.703125 73.5 45.425781 73.671875 C 45.199219 73.8125 45.070312 73.835938 44.382812 73.855469 L 43.601562 73.878906 L 43.601562 75.199219 L 44.25 75.199219 C 45.949219 75.195312 46.835938 74.792969 47.285156 73.816406 C 47.421875 73.519531 47.429688 73.382812 47.453125 71.582031 C 47.476562 69.464844 47.453125 69.273438 47.054688 68.519531 C 46.484375 67.449219 45.09375 66.730469 43.933594 66.910156 M 53.085938 66.960938 C 52.929688 67.011719 52.671875 67.128906 52.507812 67.226562 C 51.46875 67.835938 51.300781 69.230469 52.175781 69.996094 C 52.484375 70.269531 52.71875 70.371094 53.578125 70.605469 C 54.464844 70.84375 54.722656 70.972656 54.847656 71.234375 C 55.070312 71.699219 54.667969 72.132812 54.019531 72.132812 C 53.375 72.132812 53 71.851562 52.894531 71.285156 L 52.851562 71.066406 L 51.390625 71.066406 L 51.4375 71.382812 C 51.53125 72.070312 51.992188 72.765625 52.578125 73.109375 C 53.835938 73.847656 55.660156 73.371094 56.238281 72.152344 C 56.390625 71.828125 56.410156 71.710938 56.390625 71.261719 C 56.371094 70.816406 56.339844 70.707031 56.167969 70.460938 C 55.894531 70.078125 55.417969 69.828125 54.394531 69.53125 C 53.921875 69.394531 53.457031 69.234375 53.363281 69.171875 C 52.804688 68.804688 53.125 68.183594 53.875 68.183594 C 54.269531 68.183594 54.515625 68.328125 54.667969 68.65625 L 54.765625 68.867188 L 55.5 68.851562 L 56.234375 68.832031 L 56.210938 68.601562 C 56.152344 68.003906 55.6875 67.414062 55.011719 67.089844 C 54.695312 66.9375 54.527344 66.90625 54 66.886719 C 53.59375 66.875 53.265625 66.902344 53.085938 66.960938 M 59.824219 66.9375 C 58.230469 67.214844 57.066406 68.574219 57.066406 70.167969 C 57.066406 71.042969 57.371094 71.773438 58.015625 72.441406 C 59.40625 73.894531 61.722656 73.746094 62.9375 72.132812 C 63.171875 71.820312 63.464844 71.265625 63.464844 71.132812 C 63.464844 71.09375 63.175781 71.066406 62.707031 71.066406 L 61.945312 71.066406 L 61.808594 71.285156 C 61.371094 71.992188 60.550781 72.296875 59.800781 72.035156 C 59.363281 71.878906 59.03125 71.574219 58.800781 71.113281 L 58.59375 70.699219 L 61.097656 70.683594 L 63.601562 70.664062 L 63.597656 70.183594 C 63.597656 69.054688 63.027344 68.011719 62.082031 67.410156 C 61.453125 67.011719 60.523438 66.816406 59.824219 66.9375 M 66.480469 66.96875 C 65.574219 67.214844 64.960938 67.777344 64.664062 68.644531 C 64.546875 68.984375 64.535156 69.214844 64.535156 71.144531 L 64.535156 73.265625 L 65.933594 73.265625 L 65.933594 71.4375 C 65.933594 70.382812 65.964844 69.464844 66.003906 69.273438 C 66.136719 68.660156 66.527344 68.277344 67.097656 68.203125 L 67.367188 68.167969 L 67.386719 67.515625 L 67.40625 66.867188 L 67.117188 66.871094 C 66.960938 66.875 66.675781 66.917969 66.480469 66.96875 M 80.367188 66.933594 C 79.105469 67.132812 78.066406 68.039062 77.695312 69.257812 C 77.558594 69.707031 77.574219 70.695312 77.722656 71.144531 C 78.109375 72.324219 79.109375 73.1875 80.339844 73.40625 C 81.84375 73.675781 83.421875 72.71875 83.933594 71.234375 C 84.136719 70.640625 84.167969 70.667969 83.316406 70.667969 L 82.566406 70.667969 L 82.449219 70.996094 C 82.378906 71.195312 82.210938 71.445312 82.035156 71.621094 C 81.160156 72.492188 79.789062 72.203125 79.253906 71.035156 C 79.023438 70.523438 79.035156 69.761719 79.289062 69.25 C 79.996094 67.808594 81.925781 67.902344 82.476562 69.410156 L 82.617188 69.800781 L 83.34375 69.800781 C 84.058594 69.800781 84.066406 69.796875 84.066406 69.644531 C 84.066406 69.402344 83.820312 68.742188 83.601562 68.40625 C 83.363281 68.035156 82.929688 67.609375 82.554688 67.375 C 81.960938 67.007812 81.046875 66.824219 80.367188 66.933594 M 87.535156 66.941406 C 86.933594 67.035156 86.140625 67.46875 85.710938 67.933594 C 84.472656 69.269531 84.507812 71.1875 85.792969 72.472656 C 86.824219 73.503906 88.246094 73.734375 89.546875 73.082031 C 90.140625 72.789062 90.707031 72.226562 90.988281 71.667969 C 91.105469 71.433594 91.199219 71.207031 91.199219 71.15625 C 91.199219 71.085938 91.03125 71.066406 90.433594 71.066406 L 89.671875 71.066406 L 89.574219 71.253906 C 89.425781 71.535156 88.992188 71.898438 88.644531 72.03125 C 87.875 72.328125 86.9375 71.929688 86.535156 71.132812 C 86.277344 70.632812 86.117188 70.667969 88.867188 70.667969 L 91.332031 70.667969 L 91.332031 70.140625 C 91.332031 68.570312 90.277344 67.300781 88.699219 66.96875 C 88.183594 66.859375 88.066406 66.855469 87.535156 66.941406 M 93.546875 66.996094 C 92.902344 67.234375 92.402344 67.703125 92.265625 68.199219 C 92.058594 68.949219 92.3125 69.730469 92.890625 70.117188 C 93.070312 70.238281 93.421875 70.394531 93.675781 70.46875 C 93.925781 70.539062 94.347656 70.664062 94.609375 70.738281 C 95.34375 70.953125 95.640625 71.351562 95.394531 71.808594 C 95.222656 72.132812 94.355469 72.246094 93.949219 72 C 93.6875 71.839844 93.46875 71.5 93.46875 71.25 L 93.464844 71.066406 L 91.980469 71.066406 L 92.023438 71.40625 C 92.191406 72.835938 93.660156 73.742188 95.199219 73.367188 C 96.828125 72.96875 97.550781 71.285156 96.53125 70.257812 C 96.199219 69.925781 95.84375 69.765625 94.859375 69.5 C 94.542969 69.417969 94.171875 69.292969 94.035156 69.230469 C 93.753906 69.097656 93.582031 68.789062 93.664062 68.570312 C 93.792969 68.21875 94.585938 68.054688 94.964844 68.304688 C 95.066406 68.371094 95.191406 68.527344 95.242188 68.648438 L 95.335938 68.867188 L 96.066406 68.867188 C 96.902344 68.867188 96.878906 68.886719 96.699219 68.289062 C 96.5625 67.820312 96.160156 67.386719 95.617188 67.121094 C 95.230469 66.929688 95.101562 66.902344 94.539062 66.882812 C 94.035156 66.867188 93.828125 66.890625 93.546875 66.996094 M 31.667969 70.132812 L 31.667969 73.265625 L 33.066406 73.265625 L 33.066406 67 L 31.667969 67 L 31.667969 70.132812 M 67.9375 67.082031 C 67.9375 67.128906 68.484375 68.53125 69.15625 70.199219 L 70.371094 73.234375 L 71.101562 73.25 L 71.832031 73.269531 L 73.019531 70.273438 C 73.675781 68.628906 74.226562 67.214844 74.246094 67.136719 C 74.28125 67 74.269531 66.996094 73.5625 67.015625 L 72.84375 67.035156 L 72.234375 68.632812 C 71.234375 71.25 71.109375 71.5625 71.085938 71.496094 C 71.074219 71.460938 70.675781 70.441406 70.207031 69.234375 L 69.351562 67.035156 L 68.644531 67.015625 C 68.097656 67 67.933594 67.015625 67.9375 67.082031 M 75.066406 70.132812 L 75.066406 73.265625 L 76.535156 73.265625 L 76.535156 67 L 75.066406 67 L 75.066406 70.132812 M 12.371094 68.332031 C 11.992188 68.484375 11.640625 68.796875 11.460938 69.148438 C 11.390625 69.285156 11.332031 69.402344 11.332031 69.414062 C 11.332031 69.425781 12.066406 69.425781 12.960938 69.414062 C 14.816406 69.394531 14.765625 69.417969 14.25 68.832031 C 13.746094 68.257812 13.023438 68.066406 12.371094 68.332031 M 19.640625 68.332031 C 19.234375 68.492188 18.910156 68.796875 18.679688 69.234375 C 18.523438 69.523438 18.5 69.644531 18.5 70.167969 C 18.5 70.6875 18.523438 70.8125 18.679688 71.105469 C 19.277344 72.242188 20.613281 72.46875 21.476562 71.582031 C 21.976562 71.066406 22.144531 70.125 21.867188 69.386719 C 21.527344 68.46875 20.496094 67.984375 19.640625 68.332031 M 43.691406 68.335938 C 43.25 68.507812 42.863281 68.929688 42.675781 69.425781 C 42.183594 70.742188 43.125 72.214844 44.394531 72.121094 C 45.394531 72.042969 46.066406 71.246094 46.066406 70.136719 C 46.066406 68.796875 44.847656 67.875 43.691406 68.335938 M 59.871094 68.277344 C 59.515625 68.378906 59.085938 68.710938 58.902344 69.023438 C 58.808594 69.183594 58.734375 69.339844 58.734375 69.371094 C 58.734375 69.4375 61.855469 69.433594 61.917969 69.371094 C 61.988281 69.300781 61.695312 68.847656 61.441406 68.628906 C 61.003906 68.25 60.417969 68.121094 59.871094 68.277344 M 87.582031 68.296875 C 87.191406 68.433594 86.878906 68.671875 86.664062 68.996094 C 86.554688 69.15625 86.464844 69.320312 86.464844 69.363281 C 86.464844 69.410156 86.964844 69.425781 88.101562 69.414062 L 89.738281 69.394531 L 89.585938 69.121094 C 89.179688 68.398438 88.304688 68.039062 87.582031 68.296875 "/>
</g>
</svg>
