<?xml version="1.0" standalone="no"?>
<!DOCTYPE svg PUBLIC "-//W3C//DTD SVG 20010904//EN"
 "http://www.w3.org/TR/2001/REC-SVG-20010904/DTD/svg10.dtd">
<svg version="1.0" xmlns="http://www.w3.org/2000/svg"
 width="512.000000pt" height="512.000000pt" viewBox="0 0 512.000000 512.000000"
 preserveAspectRatio="xMidYMid meet">

<g transform="translate(0.000000,512.000000) scale(0.100000,-0.100000)"
fill="#000000" stroke="none">
<path d="M1115 4984 c-114 -28 -222 -90 -310 -179 -89 -89 -135 -159 -171
-263 -67 -194 -47 -394 57 -575 l39 -68 -66 -92 c-235 -327 -385 -713 -424
-1092 -19 -183 -15 -172 -64 -194 -91 -40 -162 -141 -173 -245 -15 -148 84
-290 226 -327 48 -12 49 -12 61 -68 40 -178 173 -493 280 -662 239 -376 568
-673 954 -863 205 -100 391 -161 636 -207 145 -27 476 -37 631 -20 461 53 881
228 1232 516 111 91 125 119 86 169 -36 46 -74 37 -165 -40 -102 -85 -258
-191 -376 -253 -90 -48 -268 -126 -272 -119 -7 9 -467 1430 -464 1432 1 2 30
18 63 36 95 54 195 162 249 271 25 50 46 99 46 109 0 31 -39 70 -70 70 -49 0
-59 -10 -101 -97 -29 -58 -59 -102 -99 -141 -66 -66 -138 -111 -145 -90 -2 7
-38 119 -80 248 -90 276 -107 302 -178 269 -43 -20 -47 -44 -47 -319 0 -143
-4 -260 -8 -260 -26 0 -125 36 -172 63 -73 41 -157 128 -197 203 -137 258 -41
574 214 706 86 45 148 60 245 60 135 0 253 -47 350 -140 70 -66 111 -129 138
-208 23 -67 40 -84 86 -84 45 0 78 42 70 89 -15 96 -127 268 -224 346 -124 99
-265 147 -427 146 -244 -1 -450 -119 -575 -331 -67 -114 -85 -185 -85 -340 1
-120 4 -143 27 -208 39 -107 83 -177 169 -263 62 -63 93 -85 170 -122 52 -25
122 -51 157 -58 l62 -13 0 -202 0 -202 -47 6 c-94 9 -236 52 -336 100 -287
138 -493 387 -579 702 -20 74 -23 108 -23 265 0 155 3 191 23 262 52 192 148
359 282 493 420 420 1095 422 1512 5 189 -189 296 -422 317 -690 7 -95 11
-111 31 -127 31 -25 72 -23 98 5 18 19 22 35 22 94 0 88 -22 217 -55 322 -118
373 -411 672 -777 794 -309 103 -631 81 -923 -63 -242 -119 -418 -288 -544
-522 -154 -285 -185 -633 -84 -952 133 -423 526 -761 958 -826 44 -7 90 -14
103 -16 22 -4 22 -5 22 -205 l0 -201 -67 7 c-372 38 -713 194 -975 443 l-72
69 21 29 c61 86 69 219 17 314 -58 107 -149 159 -285 163 l-73 2 -32 100
c-127 394 -102 804 71 1183 21 45 42 82 46 82 5 0 16 -15 25 -32 52 -103 110
-134 187 -100 41 18 49 32 275 424 262 454 225 411 400 474 52 19 151 46 220
61 111 23 151 27 317 27 160 1 208 -3 303 -22 195 -39 387 -113 544 -208 50
-31 59 -40 54 -58 -24 -82 -27 -128 -11 -188 40 -158 193 -260 345 -230 30 6
64 14 76 17 18 6 29 -5 68 -67 135 -210 229 -493 242 -728 7 -142 12 -168 35
-191 25 -25 74 -24 100 2 21 21 22 28 16 163 -12 291 -110 595 -272 842 l-56
87 22 51 c31 71 32 182 1 246 -36 73 -78 117 -148 151 -86 42 -173 45 -257 6
l-56 -26 -93 57 c-178 107 -402 190 -618 228 -78 14 -153 19 -295 18 -205 0
-317 -15 -475 -61 -136 -41 -132 -40 -119 -7 6 16 13 74 16 129 5 89 1 131
-23 236 -6 25 -3 26 88 48 164 39 259 51 438 58 198 7 348 -5 523 -42 895
-186 1578 -915 1711 -1826 9 -59 16 -130 16 -158 0 -49 -1 -51 -40 -71 -108
-55 -170 -155 -170 -276 0 -59 5 -81 31 -132 28 -56 98 -132 122 -132 16 0 0
-72 -47 -214 -75 -227 -183 -435 -325 -626 -39 -52 -71 -105 -71 -116 0 -37
37 -74 75 -74 38 0 69 30 156 155 157 225 271 468 344 731 l28 102 38 5 c91
12 186 84 231 175 33 68 33 187 -2 257 -33 67 -99 130 -163 153 l-52 20 -8 93
c-31 382 -165 764 -381 1089 -362 542 -918 902 -1561 1011 -158 26 -441 36
-600 20 -120 -13 -320 -49 -405 -75 -44 -13 -44 -13 -76 21 -37 39 -63 42
-100 10 -35 -30 -36 -69 -2 -122 44 -70 70 -155 75 -245 6 -100 -7 -174 -46
-256 -21 -43 -472 -834 -486 -852 -1 -1 -112 188 -246 420 -149 258 -253 450
-268 493 -93 274 72 587 358 675 77 24 213 27 291 5 106 -29 119 -30 145 -5
53 50 25 108 -67 140 -83 30 -292 37 -383 14z m2702 -1195 c34 -21 73 -90 73
-130 -1 -42 -37 -108 -72 -129 -70 -42 -142 -35 -198 21 -61 62 -60 156 3 217
57 55 126 63 194 21z m-2897 -221 c58 -100 106 -187 108 -194 2 -6 -13 -38
-32 -71 -78 -132 -151 -331 -186 -503 -63 -308 -42 -624 60 -929 l38 -115 -29
-35 c-86 -108 -76 -289 21 -390 76 -78 196 -116 288 -91 l44 11 86 -83 c291
-280 641 -443 1050 -489 l102 -12 0 -200 0 -200 -92 7 c-798 58 -1523 582
-1834 1323 -46 109 -114 319 -114 351 0 10 16 26 36 37 85 46 144 151 144 260
0 126 -67 227 -186 282 l-51 23 4 53 c23 289 96 553 225 812 55 111 194 335
208 335 3 0 53 -82 110 -182z m-540 -1187 c109 -57 107 -222 -3 -275 -73 -34
-150 -12 -201 57 -29 39 -29 125 0 164 52 70 133 92 204 54z m4510 -3 c55 -38
75 -73 75 -133 0 -153 -195 -212 -281 -86 -33 48 -33 124 -1 171 46 69 143 91
207 48z m-1996 -1231 c142 -434 255 -791 252 -794 -22 -22 -377 -83 -482 -83
l-44 0 0 848 c0 466 4 840 9 832 5 -8 124 -370 265 -803z m-1676 516 c85 -64
79 -189 -12 -257 -38 -29 -124 -29 -163 0 -117 87 -88 254 50 283 40 9 93 -2
125 -26z"/>
<path d="M1188 4597 c-99 -37 -150 -83 -199 -177 -20 -37 -24 -60 -24 -130 0
-73 4 -93 28 -142 95 -194 346 -243 510 -99 20 18 51 62 69 98 102 208 -41
448 -275 460 -45 2 -86 -2 -109 -10z m196 -171 c48 -36 70 -80 70 -141 1 -97
-72 -170 -169 -169 -114 1 -192 95 -171 209 8 42 58 102 101 122 47 21 127 12
169 -21z"/>
</g>
</svg>
