<?xml version="1.0" standalone="no"?>
<!DOCTYPE svg PUBLIC "-//W3C//DTD SVG 20010904//EN"
 "http://www.w3.org/TR/2001/REC-SVG-20010904/DTD/svg10.dtd">
<svg version="1.0" xmlns="http://www.w3.org/2000/svg"
 width="512.000000pt" height="512.000000pt" viewBox="0 0 512.000000 512.000000"
 preserveAspectRatio="xMidYMid meet">

<g transform="translate(0.000000,512.000000) scale(0.100000,-0.100000)"
fill="#000000" stroke="none">
<path d="M412 5100 c-99 -26 -174 -71 -252 -149 -77 -79 -114 -142 -140 -247
-20 -75 -20 -116 -20 -1663 0 -1759 -4 -1649 67 -1783 65 -125 189 -227 333
-274 52 -18 127 -19 1282 -22 l1226 -3 5 383 c5 418 7 442 67 597 62 159 199
329 345 428 258 174 583 209 867 93 313 -128 536 -417 578 -751 5 -46 10 -222
10 -391 0 -170 3 -308 8 -308 4 0 31 14 60 31 75 42 162 135 205 217 71 134
67 24 67 1783 0 1549 0 1588 -20 1663 -26 103 -69 177 -149 256 -78 77 -142
113 -247 140 -76 20 -117 20 -2148 19 -2010 0 -2073 -1 -2144 -19z m3335 -650
c61 -27 85 -70 80 -143 -3 -51 -8 -62 -40 -95 l-37 -37 -1173 -3 c-827 -2
-1180 1 -1198 9 -15 6 -39 24 -55 40 -22 23 -28 40 -31 86 -5 73 19 116 80
143 41 19 79 20 1187 20 1108 0 1146 -1 1187 -20z m664 -653 c21 -14 41 -41
53 -69 17 -42 18 -52 7 -89 -16 -53 -56 -94 -107 -108 -56 -16 -3553 -15
-3609 0 -52 15 -101 67 -110 118 -9 54 22 123 67 151 33 20 44 20 1849 20
l1816 0 34 -23z m-10 -639 c106 -60 96 -217 -18 -264 -48 -21 -3598 -21 -3646
0 -113 47 -124 203 -20 264 l38 22 1804 0 1803 0 39 -22z m-1904 -1114 c94
-70 96 -190 4 -251 l-34 -23 -856 0 c-817 0 -858 1 -891 19 -50 26 -84 96 -75
151 9 50 55 106 99 119 18 6 386 9 878 8 842 -2 847 -2 875 -23z"/>
<path d="M3717 2214 c-224 -48 -403 -210 -473 -428 -32 -100 -37 -246 -11
-343 83 -312 382 -516 692 -472 402 56 648 457 515 837 -51 145 -171 281 -310
349 -138 69 -272 87 -413 57z"/>
<path d="M3212 507 c3 -392 4 -407 24 -433 38 -51 71 -69 128 -69 52 0 59 4
262 139 115 77 213 139 219 139 6 0 104 -62 219 -139 203 -135 210 -139 262
-139 57 0 90 18 128 69 20 26 21 41 24 432 l3 404 -73 -55 c-96 -73 -217 -131
-336 -162 -123 -32 -305 -35 -422 -8 -138 32 -268 94 -382 182 l-59 45 3 -405z"/>
</g>
</svg>
