<?xml version="1.0" standalone="no"?>
<!DOCTYPE svg PUBLIC "-//W3C//DTD SVG 20010904//EN"
 "http://www.w3.org/TR/2001/REC-SVG-20010904/DTD/svg10.dtd">
<svg version="1.0" xmlns="http://www.w3.org/2000/svg"
 width="512.000000pt" height="512.000000pt" viewBox="0 0 512.000000 512.000000"
 preserveAspectRatio="xMidYMid meet">

<g transform="translate(0.000000,512.000000) scale(0.100000,-0.100000)"
fill="#000000" stroke="none">
<path d="M2455 4650 c-473 -43 -881 -363 -1029 -810 -167 -501 1 -1033 424
-1349 414 -309 1004 -309 1420 0 156 115 305 298 379 461 190 424 131 892
-159 1259 -239 303 -643 474 -1035 439z m203 -160 c151 -16 142 -10 142 -96 0
-69 3 -81 50 -174 27 -54 59 -104 69 -110 12 -6 106 -10 240 -10 l221 0 26
-40 c15 -22 25 -41 23 -43 -2 -1 -38 -18 -79 -38 l-75 -36 -115 38 c-63 21
-124 36 -135 32 -36 -10 -61 -42 -105 -135 l-44 -91 44 -176 c23 -97 47 -184
52 -194 5 -9 69 -58 143 -107 161 -107 180 -111 240 -50 21 22 42 40 46 40 13
0 101 -279 94 -300 -11 -35 -120 -193 -173 -252 -190 -206 -473 -328 -762
-328 -410 0 -774 233 -946 606 -80 173 -112 408 -80 590 26 153 16 154 146 -8
111 -138 117 -143 155 -146 39 -3 43 0 143 101 59 61 102 112 102 124 0 10
-13 58 -29 105 l-29 86 126 32 c70 17 134 38 142 45 9 8 31 46 50 84 l34 71
110 36 c117 38 156 65 156 108 0 13 -25 73 -55 135 -44 90 -51 111 -37 111 9
0 59 -5 110 -10z m-258 -90 c22 -44 40 -84 40 -89 0 -5 -35 -21 -79 -36 -88
-29 -106 -45 -149 -131 l-31 -61 -151 -38 c-124 -31 -154 -42 -170 -63 -26
-33 -26 -41 15 -162 l35 -104 -27 -28 c-15 -16 -31 -27 -35 -26 -5 2 -55 62
-112 133 l-104 130 24 45 c92 169 267 332 459 425 52 25 186 72 242 84 2 1 21
-35 43 -79z m682 -47 c42 -26 89 -57 105 -69 l28 -23 -102 -1 -103 0 -25 50
c-14 27 -25 61 -25 75 0 23 3 25 23 20 12 -4 57 -27 99 -52z m456 -545 c32
-92 51 -183 58 -279 7 -93 -3 -246 -16 -233 -4 5 -22 52 -39 105 -35 106 -55
132 -102 132 -24 0 -44 -14 -98 -67 l-68 -68 -81 54 -81 53 -32 132 c-32 128
-33 133 -16 167 l16 35 87 -29 c48 -17 100 -30 115 -30 15 0 69 20 120 45 51
25 98 45 104 45 6 0 21 -28 33 -62z"/>
<path d="M2135 3531 c-36 -16 -215 -207 -215 -229 0 -12 17 -55 37 -97 l37
-75 -39 -119 c-32 -98 -37 -124 -28 -144 6 -13 90 -83 187 -155 133 -100 183
-132 205 -132 20 0 98 41 243 128 l213 127 92 180 c51 99 92 190 93 202 0 44
-40 71 -165 113 -100 33 -140 54 -244 123 l-124 82 -136 2 c-75 1 -145 -1
-156 -6z m354 -230 c75 -49 145 -87 188 -101 37 -12 72 -26 76 -30 5 -4 -16
-55 -45 -114 l-53 -106 -164 -99 -165 -98 -109 80 c-60 44 -111 86 -114 93 -3
7 9 55 26 106 17 51 31 100 31 108 0 8 -14 44 -30 79 l-31 64 48 49 47 48 88
0 88 0 119 -79z"/>
<path d="M841 3290 c-85 -18 -158 -76 -201 -161 -14 -26 -41 -174 -91 -496
l-70 -458 82 -375 82 -375 211 -213 c152 -154 263 -255 399 -364 l187 -150 0
-233 c0 -220 1 -234 21 -259 l20 -26 439 0 439 0 21 27 c21 27 21 30 18 518
-4 475 -5 492 -27 565 -41 136 -104 243 -209 352 -155 161 -309 247 -486 270
-44 5 -90 12 -102 14 -11 2 -54 45 -95 96 -41 51 -120 147 -176 215 l-102 123
-3 358 -3 358 -30 59 c-60 117 -195 181 -324 155z m137 -177 c13 -8 32 -28 42
-46 19 -30 20 -52 20 -339 l0 -307 -47 -6 c-74 -10 -127 -32 -177 -76 -80 -71
-120 -189 -96 -288 14 -60 281 -557 316 -588 31 -29 64 -29 98 -2 48 38 39 65
-114 346 -77 142 -143 272 -146 290 -8 44 26 113 68 137 42 26 111 25 146 -1
15 -10 91 -98 170 -194 78 -96 160 -195 181 -220 l39 -46 109 -11 c187 -19
305 -75 438 -207 93 -92 142 -167 182 -280 l28 -80 3 -427 3 -428 -320 0 -321
0 0 208 c0 176 -3 211 -16 231 -9 13 -114 101 -233 196 -154 123 -265 223
-387 346 l-172 174 -75 342 -76 342 64 418 c36 230 67 428 70 440 8 34 54 82
88 92 38 11 83 5 115 -16z"/>
<path d="M4153 3290 c-94 -19 -177 -92 -212 -184 -20 -54 -21 -74 -21 -401 l0
-344 -102 -124 c-57 -67 -136 -164 -177 -215 -41 -51 -84 -94 -95 -96 -12 -2
-58 -9 -102 -14 -175 -23 -332 -110 -485 -270 -106 -109 -169 -216 -210 -352
-22 -73 -23 -90 -27 -565 -3 -488 -3 -491 18 -518 l21 -27 439 0 439 0 20 26
c20 25 21 39 21 259 l0 233 188 150 c135 109 246 210 398 364 l211 213 82 375
83 375 -71 457 c-74 481 -79 501 -142 572 -59 68 -180 105 -276 86z m134 -176
c50 -32 56 -55 125 -499 l67 -430 -76 -345 -75 -345 -172 -174 c-120 -121
-237 -226 -393 -352 -122 -98 -227 -188 -233 -198 -6 -12 -10 -102 -10 -225
l0 -206 -321 0 -320 0 3 428 3 427 28 80 c40 113 89 188 182 280 135 133 251
188 438 207 l109 11 39 46 c21 25 103 124 181 220 79 96 155 184 170 194 35
26 104 27 146 1 42 -24 76 -93 68 -137 -3 -18 -69 -148 -146 -290 -153 -281
-162 -308 -114 -346 34 -27 67 -27 98 1 40 37 303 532 317 596 36 173 -87 333
-273 357 l-48 6 0 305 c0 322 2 335 48 377 41 37 110 42 159 11z"/>
</g>
</svg>
