<?xml version="1.0" standalone="no"?>
<!DOCTYPE svg PUBLIC "-//W3C//DTD SVG 20010904//EN"
 "http://www.w3.org/TR/2001/REC-SVG-20010904/DTD/svg10.dtd">
<svg version="1.0" xmlns="http://www.w3.org/2000/svg"
 width="512.000000pt" height="512.000000pt" viewBox="0 0 512.000000 512.000000"
 preserveAspectRatio="xMidYMid meet">

<g transform="translate(0.000000,512.000000) scale(0.100000,-0.100000)"
fill="#000000" stroke="none">
<path d="M3428 4663 c-120 -120 -221 -228 -225 -241 -3 -12 11 -89 31 -169
l37 -147 -44 -44 -45 -44 -92 61 c-172 113 -316 155 -530 155 -160 0 -227 -12
-359 -65 -177 -70 -360 -225 -459 -388 -229 -376 -175 -854 133 -1167 131
-134 175 -155 229 -113 20 16 26 29 26 59 0 34 -6 43 -67 95 -126 107 -211
227 -257 362 -120 353 10 730 321 933 136 89 259 125 433 124 134 0 216 -15
320 -61 58 -25 180 -101 180 -112 0 -3 -50 -56 -111 -117 l-111 -111 -52 28
c-274 148 -611 -2 -691 -308 -83 -320 200 -634 529 -586 325 47 509 392 364
685 l-34 67 113 113 114 113 19 -25 c129 -170 186 -412 146 -622 -38 -195
-128 -346 -292 -485 -58 -49 -64 -58 -64 -93 0 -30 6 -43 26 -59 54 -43 98
-21 229 113 127 130 206 273 251 456 25 100 26 325 1 422 -28 115 -75 221
-138 318 l-61 92 44 45 44 44 147 -37 c80 -20 157 -34 169 -31 13 4 121 105
241 225 189 190 217 222 217 249 0 57 -22 71 -185 112 l-149 37 -37 149 c-41
163 -55 185 -112 185 -27 0 -59 -28 -249 -217z m236 -128 c6 -28 -2 -39 -127
-163 l-134 -134 -17 68 -17 68 133 133 133 134 11 -38 c6 -21 14 -52 18 -68z
m219 -169 l38 -11 -134 -133 -133 -133 -68 17 -68 17 134 134 c146 147 130
139 231 109z m-1199 -791 l39 -16 -122 -123 c-104 -106 -121 -127 -121 -155 0
-43 38 -81 81 -81 28 0 49 17 154 120 l122 121 19 -43 c14 -31 19 -65 19 -123
0 -73 -4 -86 -36 -145 -153 -280 -571 -191 -597 127 -11 144 76 275 218 327
55 20 166 15 224 -9z"/>
<path d="M2410 4713 c-19 -2 -79 -12 -132 -23 -696 -138 -1192 -774 -1155
-1479 4 -77 11 -121 22 -137 30 -46 104 -44 129 4 11 21 13 56 9 152 -14 360
117 692 376 951 236 236 512 359 846 375 159 9 310 -13 465 -67 157 -55 173
-57 204 -25 31 30 34 74 9 104 -21 25 -139 73 -250 102 -151 40 -375 59 -523
43z"/>
<path d="M3745 3895 c-33 -32 -32 -50 11 -163 63 -169 77 -253 79 -466 1 -184
2 -189 24 -207 29 -24 72 -24 101 -1 56 46 53 353 -7 582 -32 123 -78 241
-104 263 -30 25 -75 22 -104 -8z"/>
<path d="M1062 2945 c-113 -25 -226 -87 -313 -174 -251 -252 -251 -651 0 -900
252 -251 647 -254 895 -6 122 121 184 256 193 419 7 119 -14 216 -69 326 -128
256 -423 396 -706 335z m253 -160 c190 -50 330 -207 358 -401 35 -238 -121
-467 -358 -529 -251 -65 -513 94 -580 350 -89 343 237 669 580 580z"/>
<path d="M3782 2945 c-113 -25 -226 -87 -313 -174 -251 -252 -251 -651 0 -900
252 -251 647 -254 895 -6 122 121 184 256 193 419 7 119 -14 216 -69 326 -128
256 -423 396 -706 335z m253 -160 c190 -50 330 -207 358 -401 35 -238 -121
-467 -358 -529 -251 -65 -513 94 -580 350 -89 343 237 669 580 580z"/>
<path d="M2422 2545 c-113 -25 -226 -87 -313 -174 -251 -252 -251 -651 0 -900
252 -251 647 -254 895 -6 122 121 184 256 193 419 7 119 -14 216 -69 326 -128
256 -423 396 -706 335z m253 -160 c190 -50 330 -207 358 -401 35 -238 -121
-467 -358 -529 -251 -65 -513 94 -580 350 -89 343 237 669 580 580z"/>
<path d="M940 1589 c-235 -23 -450 -78 -585 -147 -87 -46 -166 -122 -183 -178
-8 -28 -12 -128 -12 -308 l0 -267 25 -24 c32 -33 78 -33 110 0 l25 24 0 264 0
263 33 31 c17 18 66 48 107 67 353 168 1155 165 1492 -5 70 -35 101 -36 133
-4 26 25 32 63 15 96 -32 58 -297 144 -555 179 -111 15 -490 21 -605 9z"/>
<path d="M3720 1593 c-305 -29 -485 -71 -632 -144 -83 -42 -102 -95 -53 -144
31 -32 60 -31 131 4 344 170 1141 173 1494 5 41 -19 90 -49 108 -67 l32 -31 0
-263 0 -264 25 -24 c32 -33 78 -33 110 0 l25 24 0 273 c0 266 -1 274 -24 324
-71 153 -361 266 -776 304 -106 9 -358 11 -440 3z"/>
<path d="M2300 1188 c-409 -37 -722 -170 -768 -324 -8 -28 -12 -128 -12 -308
l0 -267 25 -24 c32 -33 78 -33 110 0 l25 24 0 264 0 263 33 31 c106 103 403
177 757 190 412 14 810 -66 938 -190 l32 -31 0 -263 0 -264 25 -24 c32 -33 78
-33 110 0 l25 24 0 273 c0 266 -1 274 -24 324 -71 153 -361 266 -776 304 -134
12 -364 11 -500 -2z"/>
</g>
</svg>
