<?xml version="1.0" standalone="no"?>
<!DOCTYPE svg PUBLIC "-//W3C//DTD SVG 20010904//EN"
 "http://www.w3.org/TR/2001/REC-SVG-20010904/DTD/svg10.dtd">
<svg version="1.0" xmlns="http://www.w3.org/2000/svg"
 width="512.000000pt" height="512.000000pt" viewBox="0 0 512.000000 512.000000"
 preserveAspectRatio="xMidYMid meet">

<g transform="translate(0.000000,512.000000) scale(0.100000,-0.100000)"
fill="#000000" stroke="none">
<path d="M2925 5023 c-52 -19 -68 -29 -198 -125 -86 -63 -88 -64 -268 -77
-137 -10 -184 -26 -252 -82 -57 -47 -84 -104 -122 -255 -19 -75 -43 -146 -52
-156 -9 -10 -63 -65 -119 -121 -116 -117 -138 -161 -137 -279 0 -62 5 -78 68
-208 l68 -140 -9 -88 c-5 -48 -9 -132 -9 -187 0 -92 2 -104 30 -154 39 -70 98
-121 182 -156 37 -15 72 -31 76 -35 5 -4 -54 -139 -129 -301 -155 -332 -160
-352 -106 -400 40 -35 55 -36 227 -4 72 13 133 20 137 17 3 -4 36 -59 73 -122
37 -63 77 -126 91 -140 32 -33 93 -34 127 -2 14 13 85 152 158 309 126 271
135 287 169 301 57 24 107 26 168 7 l57 -17 134 -288 c73 -159 145 -299 158
-312 31 -29 92 -31 123 -3 12 11 56 78 97 148 42 70 81 126 87 124 6 -2 74
-15 152 -27 118 -20 145 -22 170 -12 33 14 64 58 64 91 0 11 -63 156 -140 322
-77 166 -139 303 -138 304 2 2 42 21 89 44 97 46 147 93 185 175 28 60 31 130
12 297 l-12 107 68 141 c63 130 69 147 70 209 1 119 -20 159 -156 298 l-118
120 -33 136 c-37 149 -67 210 -124 257 -71 58 -114 72 -279 85 -169 14 -157
10 -287 108 -43 33 -99 69 -125 80 -65 29 -163 33 -227 11z m159 -157 c19 -8
76 -46 128 -85 52 -39 112 -78 133 -87 25 -10 98 -21 193 -29 212 -16 225 -28
276 -232 18 -72 44 -149 59 -175 15 -26 65 -82 112 -125 95 -87 120 -120 130
-176 7 -33 -1 -54 -61 -180 -68 -139 -69 -143 -69 -222 0 -44 4 -123 9 -176 5
-53 6 -108 2 -123 -12 -48 -63 -93 -144 -126 -187 -78 -221 -105 -315 -250
-107 -165 -139 -176 -345 -116 -68 20 -143 36 -167 36 -24 0 -97 -16 -164 -35
-205 -60 -235 -50 -343 110 -96 143 -140 180 -281 239 -122 51 -170 88 -183
142 -4 14 -3 67 2 118 5 50 9 129 9 176 0 85 0 87 -65 219 -53 109 -65 141
-63 178 2 58 18 80 130 187 112 106 132 142 171 306 47 196 63 209 274 225 95
8 168 19 193 29 21 9 81 48 133 87 134 101 175 115 246 85z m-690 -2096 c86
-132 155 -185 257 -197 27 -3 49 -7 49 -8 0 -12 -160 -337 -166 -337 -5 -1
-34 43 -65 97 -75 130 -77 131 -225 104 -64 -11 -118 -18 -120 -16 -5 5 198
447 206 447 3 0 32 -41 64 -90z m1435 -131 c56 -121 100 -223 98 -226 -3 -2
-57 5 -121 16 -88 16 -121 18 -139 10 -14 -6 -48 -51 -83 -111 -32 -56 -63
-101 -67 -100 -10 1 -157 308 -157 327 0 7 20 15 45 18 98 14 167 67 251 197
32 49 62 90 65 90 3 0 51 -99 108 -221z"/>
<path d="M2830 4569 c-266 -69 -472 -265 -559 -528 -100 -304 7 -653 262 -856
290 -231 696 -230 989 4 127 100 222 247 269 416 30 108 31 285 1 396 -75 280
-295 497 -576 569 -107 27 -281 27 -386 -1z m349 -154 c125 -30 252 -114 342
-225 89 -111 132 -233 133 -380 1 -117 -14 -180 -67 -290 -80 -165 -250 -297
-432 -335 -320 -67 -635 121 -735 440 -28 89 -31 241 -7 332 58 220 245 407
459 459 73 17 230 17 307 -1z"/>
<path d="M3280 4184 c-19 -8 -105 -84 -192 -172 l-158 -157 -62 62 c-94 92
-159 112 -243 74 -76 -34 -124 -120 -109 -196 3 -19 19 -54 35 -78 37 -56 255
-269 297 -291 42 -22 120 -23 165 -1 19 9 136 119 261 244 273 276 295 313
247 416 -46 99 -146 140 -241 99z m97 -160 c4 -11 -56 -78 -213 -235 -120
-120 -226 -219 -234 -219 -8 0 -71 55 -138 123 -91 91 -121 128 -116 140 3 9
11 17 17 17 5 0 54 -43 108 -95 139 -135 118 -140 353 95 105 104 197 190 204
190 7 0 15 -7 19 -16z"/>
<path d="M1905 2079 c-126 -12 -193 -43 -611 -285 -165 -96 -306 -174 -311
-174 -6 0 -22 19 -36 43 -62 105 -163 143 -263 98 -64 -29 -256 -141 -283
-165 -54 -48 -75 -143 -47 -210 30 -73 681 -1213 709 -1243 40 -43 104 -67
161 -61 58 7 308 145 353 195 35 38 53 87 53 140 0 19 -20 71 -51 128 -28 53
-49 98 -47 100 2 1 29 17 62 35 l58 33 62 -15 c33 -8 275 -73 536 -143 427
-115 485 -129 575 -133 121 -5 205 13 302 62 117 59 1524 931 1561 967 59 57
86 130 87 229 0 77 -3 92 -33 152 -91 185 -312 223 -577 99 -44 -21 -276 -151
-515 -291 -384 -223 -486 -280 -504 -280 -3 0 2 17 11 38 10 21 17 66 17 107
1 122 -70 233 -180 282 -27 12 -103 34 -169 48 -120 28 -264 73 -585 183 -181
62 -232 72 -335 61z m364 -239 c256 -90 364 -123 520 -161 141 -34 171 -47
199 -87 50 -69 29 -172 -41 -205 -66 -32 -138 -20 -486 78 -97 27 -175 44
-188 40 -35 -8 -63 -41 -63 -74 0 -58 21 -69 250 -132 491 -136 641 -145 832
-49 31 16 233 132 450 259 216 126 425 245 463 264 231 116 400 85 412 -75 3
-41 -1 -63 -19 -97 -22 -42 -59 -66 -790 -516 -578 -356 -781 -476 -825 -488
-127 -36 -156 -31 -768 133 -308 83 -568 150 -579 150 -11 0 -54 -21 -97 -46
-44 -25 -84 -44 -90 -42 -9 3 -389 665 -389 678 1 10 669 391 730 416 74 30
156 42 225 33 28 -4 142 -39 254 -79z m-1483 -228 c10 -6 651 -1133 676 -1187
8 -18 8 -28 -1 -39 -23 -27 -250 -148 -268 -142 -17 6 -678 1161 -690 1204 -6
23 7 33 136 108 106 62 127 70 147 56z"/>
<path d="M667 1470 c-33 -26 -41 -63 -23 -99 39 -75 146 -44 146 41 0 66 -70
99 -123 58z"/>
</g>
</svg>
